<svg xmlns="http://www.w3.org/2000/svg" width="200" height="50" viewBox="0 0 200 50">
  <defs>
    <style>
      .cls-1 {
        fill: none;
      }

      .cls-2 {
        fill: #fff;
        stroke-width: 1.5px;
      }

      .cls-2, .cls-9 {
        stroke: #000;
      }

      .cls-3, .cls-4 {
        fill: #ff822d;
      }

      .cls-3 {
        stroke: #fff;
        stroke-width: 2.5px;
      }

      .cls-5 {
        fill: #ffdea7;
      }

      .cls-6 {
        fill: #047400;
      }

      .cls-7 {
        fill: #212121;
      }

      .cls-8 {
        fill: #ff6723;
      }

      .cls-9 {
        stroke-width: 0.5px;
      }

      .cls-10 {
        stroke: none;
      }
    </style>
  </defs>
  <g id="logo" transform="translate(-341 -195)">
    <rect id="사각형_1" data-name="사각형 1" class="cls-1" width="200" height="50" transform="translate(341 195)"/>
    <g id="그룹_5" data-name="그룹 5" transform="translate(0 3)">
      <g id="타원_1" data-name="타원 1" class="cls-2" transform="translate(350 201)">
        <circle class="cls-10" cx="16.5" cy="16.5" r="16.5"/>
        <circle class="cls-1" cx="16.5" cy="16.5" r="15.75"/>
      </g>
      <g id="fox" transform="translate(354.303 207.147)">
        <g id="그룹_3" data-name="그룹 3" transform="translate(0 -2)">
          <path id="합치기_1" data-name="합치기 1" class="cls-3" d="M12.1,24.983h-.062A12.492,12.492,0,0,1,.368,16.944h0q-.2-.52-.352-1.062a.563.563,0,0,1,.536-.714H2.465a.72.72,0,0,0,.723-.723V7.512a9.74,9.74,0,0,1,.879-4h0A8.915,8.915,0,0,1,6.588.214a1.019,1.019,0,0,1,1.249,0,9.1,9.1,0,0,1,2.489,3.31h-.011a10.551,10.551,0,0,1,.635,1.829h2.3a10.465,10.465,0,0,1,.623-1.8h0a9.124,9.124,0,0,1,2.5-3.337,1.019,1.019,0,0,1,1.249,0,8.979,8.979,0,0,1,2.552,3.355h-.008a9.723,9.723,0,0,1,.855,3.943v6.932a.72.72,0,0,0,.723.723h1.909a.564.564,0,0,1,.544.714c-.1.366-.223.725-.357,1.077l-.006,0a12.522,12.522,0,0,1-11.673,8.022Z"/>
        </g>
        <g id="그룹_4" data-name="그룹 4" transform="translate(0 -2)">
          <path id="패스_1" data-name="패스 1" class="cls-4" d="M15.882,5.878a10.493,10.493,0,0,0-.623,1.8h-2.3a10.5,10.5,0,0,0-.638-1.835l-3.153-.82-3.092.814a9.743,9.743,0,0,0-.879,4v6.933a.72.72,0,0,1-.723.723H2.563a.563.563,0,0,0-.535.714q.155.55.359,1.079l11.736,4.324L25.85,19.285q.2-.528.358-1.077a.564.564,0,0,0-.544-.714H23.754a.72.72,0,0,1-.723-.723V9.839a9.727,9.727,0,0,0-.859-3.951L18.99,5.023Z" transform="translate(-2.007 -2.326)"/>
          <path id="패스_4" data-name="패스 4" class="cls-5" d="M25.9,20.99H20.131a7.47,7.47,0,0,0-4.354,1.4l-1.615,1.151-1.615-1.151a7.47,7.47,0,0,0-4.354-1.4H2.42a12.492,12.492,0,0,0,11.671,8.039h.125A12.52,12.52,0,0,0,25.9,20.99Z" transform="translate(-2.052 -4.046)"/>
          <g id="그룹_1" data-name="그룹 1" transform="translate(4.062)">
            <path id="패스_5" data-name="패스 5" class="cls-6" d="M12.824,5.524a9.094,9.094,0,0,0-2.489-3.31,1.018,1.018,0,0,0-1.249,0A8.917,8.917,0,0,0,6.56,5.524Z" transform="translate(-6.56 -2)"/>
            <path id="패스_6" data-name="패스 6" class="cls-6" d="M21.306,2.214a1.018,1.018,0,0,0-1.249,0A9.124,9.124,0,0,0,17.55,5.569h6.308A8.971,8.971,0,0,0,21.306,2.214Z" transform="translate(-7.744 -2)"/>
            <path id="패스_7" data-name="패스 7" class="cls-7" d="M11,17.892a.892.892,0,0,1,1.784,0v.892a.892.892,0,0,1-1.784,0Z" transform="translate(-7.038 -3.616)"/>
            <path id="패스_8" data-name="패스 8" class="cls-7" d="M18,17.892a.892.892,0,0,1,1.784,0v.892a.892.892,0,0,1-1.784,0Z" transform="translate(-7.793 -3.616)"/>
            <path id="패스_9" data-name="패스 9" class="cls-7" d="M15.251,25.13a2.719,2.719,0,0,0,2.266,1.222.446.446,0,0,0-.009-.892,1.822,1.822,0,0,1-1.82-1.82.452.452,0,0,0-.047-.2.783.783,0,0,0,.154-.12L16.8,22.311a.772.772,0,0,0-.544-1.321H14.243a.773.773,0,0,0-.553,1.321L14.7,23.319a.778.778,0,0,0,.147.115.451.451,0,0,0-.049.206,1.822,1.822,0,0,1-1.82,1.82.446.446,0,1,0,0,.892A2.747,2.747,0,0,0,15.251,25.13Z" transform="translate(-7.203 -4.046)"/>
            <path id="패스_16" data-name="패스 16" class="cls-8" d="M9.854,3.975A7.709,7.709,0,0,1,12.209,7.9a8.923,8.923,0,0,0-5.139,3.89V9.7A7.705,7.705,0,0,1,9.631,3.975a.175.175,0,0,1,.223,0Z" transform="translate(-6.615 -2.209)"/>
            <path id="패스_17" data-name="패스 17" class="cls-8" d="M23.448,9.722v2.061A8.909,8.909,0,0,0,18.3,7.9a7.668,7.668,0,0,1,2.347-3.917.175.175,0,0,1,.223,0A7.649,7.649,0,0,1,23.448,9.722Z" transform="translate(-7.825 -2.21)"/>
          </g>
        </g>
      </g>
      <path id="패스_10" data-name="패스 10" class="cls-9" d="M6.274-22.925,4.119-10.449H3.078L.923-22.925h1.1l1.543,9.907.048.811q.008-.278.056-.811l1.543-9.907Zm2.489,3.014H7.689v-1.336H8.763Zm-.016,9.43H7.705v-7.737H8.747Zm5.964-.9a.794.794,0,0,1-.9.9H11.387a.794.794,0,0,1-.9-.9v-1.757H11.53V-11.4h2.139v-1.543L10.9-15.2a1.01,1.01,0,0,1-.4-.827v-1.288a.794.794,0,0,1,.9-.9H13.8a.794.794,0,0,1,.9.9v1.543H13.669V-17.3H11.53v1.352l2.791,2.266a1.02,1.02,0,0,1,.39.843Zm6.107.9H19.776V-10.7q-.636.087-1.264.167a10.55,10.55,0,0,1-1.264.1.759.759,0,0,1-.859-.859v-6.926H17.43v6.79l2.346-.064v-6.727h1.042Zm6.1,0H25.874V-10.7q-.628.087-1.256.167a10.8,10.8,0,0,1-1.248.1.763.763,0,0,1-.867-.859v-2.823a.791.791,0,0,1,.9-.891H25.89v-2.33H23.616v1.32H22.59v-1.3a.791.791,0,0,1,.891-.9h2.544a.791.791,0,0,1,.891.9Zm-1.026-.962v-2.735H23.529V-11.4Zm3.864.962H28.713V-22.925h1.042Zm9.971-12.444L37.571-10.449H36.529L34.374-22.925h1.1l1.543,9.907.048.811q.008-.278.056-.811l1.543-9.907Zm5.812,11.545a.794.794,0,0,1-.9.9H41.984a.791.791,0,0,1-.891-.9v-5.94a.791.791,0,0,1,.891-.9H44.64a.794.794,0,0,1,.9.9Zm-1.058-.032v-5.876h-2.33v5.876Zm7.077.032a.791.791,0,0,1-.891.9H48.154a.791.791,0,0,1-.891-.9v-5.94a.791.791,0,0,1,.891-.9h2.513a.791.791,0,0,1,.891.9v1.543H50.516v-1.511H48.321v5.876h2.195v-1.725h1.042Zm6.091.9H56.606V-10.7q-.628.087-1.256.167a10.8,10.8,0,0,1-1.248.1.763.763,0,0,1-.867-.859v-2.823a.791.791,0,0,1,.9-.891h2.489v-2.33H54.348v1.32H53.322v-1.3a.791.791,0,0,1,.891-.9h2.544a.791.791,0,0,1,.891.9Zm-1.026-.962v-2.735H54.261V-11.4Z" transform="translate(397.441 233.563)"/>
    </g>
  </g>
</svg>
