<svg xmlns="http://www.w3.org/2000/svg" width="20" height="20" viewBox="0 0 20 20">
  <defs>
    <style>
      .cls-1, .cls-2 {
        fill: none;
      }

      .cls-2 {
        stroke-linecap: round;
      }

      .cls-3, .cls-4 {
        stroke: none;
      }

      .cls-4 {
        fill: #7a7a80;
      }
    </style>
  </defs>
  <g id="Bookmark" transform="translate(-340 -348)">
    <rect id="사각형_3" data-name="사각형 3" class="cls-1" width="20" height="20" transform="translate(340 348)"/>
    <g id="패스_1" data-name="패스 1" class="cls-2" transform="translate(334 353.178)">
      <path class="cls-3" d="M20.082,11.68,16.43,8.513a.659.659,0,0,0-.86,0L12.014,11.6s-.384.449-.637.445S11,11.826,11,11.583V.626A.637.637,0,0,1,11.645,0h8.71A.637.637,0,0,1,21,.626V11.583a.419.419,0,0,1-.386.459C20.375,12.045,20.082,11.68,20.082,11.68Z"/>
      <path class="cls-4" d="M 19.99980163574219 10.28526782989502 L 19.99980163574219 0.9999938011169434 L 11.99980068206787 0.9999938011169434 L 11.99980068206787 10.2850923538208 L 14.91446113586426 7.757343769073486 C 15.2147102355957 7.496723651885986 15.60016059875488 7.353183746337891 15.99980068206787 7.353183746337891 C 16.39944076538086 7.353183746337891 16.78489112854004 7.496723651885986 17.08483123779297 7.757073879241943 L 19.99980163574219 10.28526782989502 M 11.37920188903809 12.04229259490967 C 11.37823867797852 12.04229259490967 11.3773193359375 12.04228687286377 11.37636089324951 12.04227352142334 C 11.12292098999023 12.03891372680664 10.99980068206787 11.82624340057373 10.99980068206787 11.58342361450195 L 10.99980068206787 0.6260638236999512 C 10.99980068206787 0.280853807926178 11.2891902923584 -6.203003067639656e-06 11.64489078521729 -6.203003067639656e-06 L 20.35442161560059 -6.203003067639656e-06 C 20.71028137207031 -6.203003067639656e-06 20.99980163574219 0.280853807926178 20.99980163574219 0.6260638236999512 L 20.99980163574219 11.58342361450195 C 20.99980163574219 11.82631397247314 20.85192108154297 12.03975391387939 20.61334991455078 12.04227352142334 C 20.37581825256348 12.04491424560547 20.0817699432373 11.68008422851562 20.0817699432373 11.68008422851562 L 16.42962074279785 8.512523651123047 C 16.31125068664551 8.409773826599121 16.15859985351562 8.353183746337891 15.99980068206787 8.353183746337891 C 15.8410005569458 8.353183746337891 15.68835067749023 8.409773826599121 15.56998062133789 8.512523651123047 L 12.01354026794434 11.5968542098999 C 12.01354026794434 11.5968542098999 11.63264751434326 12.04224395751953 11.37920188903809 12.04229259490967 Z"/>
    </g>
  </g>
</svg>
