<svg xmlns="http://www.w3.org/2000/svg" width="20" height="20" viewBox="0 0 20 20">
  <defs>
    <style>
      .cls-1 {
        fill: none;
      }

      .cls-2 {
        fill: #f1d682;
      }
    </style>
  </defs>
  <g id="BookmarkHover" transform="translate(-340 -348)">
    <rect id="사각형_3" data-name="사각형 3" class="cls-1" width="20" height="20" transform="translate(340 348)"/>
    <path id="패스_1" data-name="패스 1" class="cls-2" d="M20.082,11.68,16.43,8.513a.659.659,0,0,0-.86,0L12.014,11.6s-.384.449-.637.445S11,11.826,11,11.583V.626A.637.637,0,0,1,11.645,0h8.71A.637.637,0,0,1,21,.626V11.583a.419.419,0,0,1-.386.459C20.375,12.045,20.082,11.68,20.082,11.68Z" transform="translate(334 353.178)"/>
  </g>
</svg>
