<svg xmlns="http://www.w3.org/2000/svg" width="20" height="20" viewBox="0 0 20 20">
  <defs>
    <style>
      .cls-1, .cls-2 {
        fill: none;
      }

      .cls-2 {
        stroke-linecap: round;
      }

      .cls-3, .cls-4 {
        stroke: none;
      }

      .cls-4 {
        fill: #7a7a80;
      }
    </style>
  </defs>
  <g id="Bookmark" transform="translate(-340 -348)">
    <rect id="사각형_3" data-name="사각형 3" class="cls-1" width="20" height="20" transform="translate(340 348)"/>
    <g id="패스_1" data-name="패스 1" class="cls-2" transform="translate(333.377 350.517)">
      <path class="cls-3" d="M21.213,14.26l-4.107-3.867a.7.7,0,0,0-.967,0l-4,3.766s-.432.548-.717.544S11,14.439,11,14.142V.764A.747.747,0,0,1,11.725,0H21.52a.747.747,0,0,1,.726.764V14.142c0,.3-.166.557-.435.56S21.213,14.26,21.213,14.26Z"/>
      <path class="cls-4" d="M 21.24526596069336 12.91731357574463 L 21.24526596069336 0.9999930262565613 L 11.99980545043945 0.9999930262565613 L 11.99980545043945 12.91707706451416 L 15.45335578918457 9.665312767028809 C 15.77276611328125 9.364313125610352 16.18798637390137 9.198542594909668 16.62253570556641 9.198542594909668 C 17.05708503723145 9.198542594909668 17.47230529785156 9.364313125610352 17.79142570495605 9.665042877197266 L 21.24526596069336 12.91731357574463 M 11.42644882202148 14.70263576507568 C 11.42536640167236 14.70263576507568 11.42433452606201 14.70262813568115 11.42325592041016 14.70261287689209 C 11.13825607299805 14.69851303100586 10.99980545043945 14.43885326385498 10.99980545043945 14.14238262176514 L 10.99980545043945 0.7643730044364929 C 10.99980545043945 0.3428930342197418 11.32522583007812 -6.97647101333132e-06 11.7252254486084 -6.97647101333132e-06 L 21.51951599121094 -6.97647101333132e-06 C 21.9196949005127 -6.97647101333132e-06 22.24526596069336 0.3428930342197418 22.24526596069336 0.7643730044364929 L 22.24526596069336 14.14238262176514 C 22.24526596069336 14.43893337249756 22.07897567749023 14.69953346252441 21.8106861114502 14.70261287689209 C 21.54254722595215 14.70566177368164 21.21290588378906 14.26040267944336 21.21290588378906 14.26040267944336 L 17.10588645935059 10.39307308197021 C 16.97277641296387 10.26763343811035 16.80111503601074 10.19854259490967 16.62253570556641 10.19854259490967 C 16.44394493103027 10.19854259490967 16.27229499816895 10.26763343811035 16.13918495178223 10.39307308197021 L 12.13979530334473 14.15879344940186 C 12.13979530334473 14.15879344940186 11.71146678924561 14.70257377624512 11.42644882202148 14.70263576507568 Z"/>
    </g>
  </g>
</svg>
