<svg xmlns="http://www.w3.org/2000/svg" width="160" height="126" viewBox="0 0 160 126">
  <defs>
    <style>
      .cls-1 {
        fill: #97ddff;
      }

      .cls-2 {
        fill: #6fd1ff;
      }
    </style>
  </defs>
  <g id="Folder" transform="translate(-733 -345)">
    <path id="합치기_2" data-name="합치기 2" class="cls-1" d="M7.119,118A7.141,7.141,0,0,1,0,110.837V7.163A7.141,7.141,0,0,1,7.119,0S43.486.02,46.583,0s4.106,1.855,5.879,3.953c.332.392,2.031,2.979,4.825,6.494a6.969,6.969,0,0,0,3.431,1.617H152.88A7.141,7.141,0,0,1,160,19.227v91.61A7.141,7.141,0,0,1,152.881,118Z" transform="translate(733 345)"/>
    <path id="패스_22" data-name="패스 22" class="cls-2" d="M11,0H149a11,11,0,0,1,11,11V95a11,11,0,0,1-11,11H11A11,11,0,0,1,0,95V11A11,11,0,0,1,11,0Z" transform="translate(733 365)"/>
  </g>
</svg>
