<svg xmlns="http://www.w3.org/2000/svg" width="33" height="25" viewBox="0 0 33 25">
  <defs>
    <style>
      .cls-1 {
        fill: none;
      }

      .cls-2, .cls-3 {
        fill: #e4af0a;
      }

      .cls-3 {
        stroke: #e4af0a;
      }
    </style>
  </defs>
  <g id="FolderOpen" transform="translate(5.913 4.182)">
    <rect id="사각형_5" data-name="사각형 5" class="cls-1" width="33" height="25" transform="translate(-5.913 -4.182)"/>
    <path id="합치기_2" data-name="합치기 2" class="cls-2" d="M-.5,14.644V1.081A1.6,1.6,0,0,1,1.107-.5H6.215a1.448,1.448,0,0,1,1.2.642c.026.031.053.064.081.1s.061.078.119.158c.089.123.249.344.465.614a.211.211,0,0,0,.033.015H19.959a1.614,1.614,0,0,1,1.6,1.62v12Zm20.675.019V2.626a.247.247,0,0,0-.239-.249H7.978l-.056-.009a1.6,1.6,0,0,1-.784-.361l-.048-.041-.039-.048c-.267-.329-.46-.6-.564-.74L6.432,1.1,6.34.991C6.3.943,6.249.881,6.218.851H1.109a.23.23,0,0,0-.229.228L.847,14.644Z" transform="translate(0.501 0.5)"/>
    <path id="패스_21" data-name="패스 21" class="cls-3" d="M4.454,6.456H23.31a1.442,1.442,0,0,1,1.5,1.371s-2.674,8.721-2.951,9.665-.673,1.371-1.5,1.371H1.5A1.442,1.442,0,0,1,0,17.492S2.719,8.645,2.951,7.827,3.625,6.456,4.454,6.456Z" transform="translate(0.689 -2.354)"/>
  </g>
</svg>
