<svg xmlns="http://www.w3.org/2000/svg" width="33" height="25" viewBox="0 0 33 25">
  <defs>
    <style>
      .cls-1 {
        fill: none;
      }

      .cls-2 {
        fill: #e4af0a;
      }
    </style>
  </defs>
  <g id="Folder" transform="translate(5.579 4.573)">
    <rect id="사각형_4" data-name="사각형 4" class="cls-1" width="33" height="25" transform="translate(-5.579 -4.573)"/>
    <path id="합치기_2" data-name="합치기 2" class="cls-2" d="M21.556,14.663H-.5V1.055a1.515,1.515,0,0,1,.467-1.1A1.626,1.626,0,0,1,1.1-.5H6.214a1.448,1.448,0,0,1,1.2.633c.026.031.053.063.081.1S7.55.3,7.61.385c.089.122.249.34.465.606a.22.22,0,0,0,.036.016h11.84a1.627,1.627,0,0,1,1.138.458,1.516,1.516,0,0,1,.467,1.1Zm-20.687,0H20.187V2.562a.228.228,0,0,0-.069-.165.242.242,0,0,0-.169-.068H7.978L7.923,2.32a1.609,1.609,0,0,1-.781-.355l-.047-.04-.039-.048c-.266-.323-.459-.587-.563-.729l-.056-.076L6.344.962C6.3.914,6.251.851,6.22.822H1.1A.24.24,0,0,0,.938.89a.226.226,0,0,0-.069.163Z" transform="translate(0.5 0.5)"/>
    <path id="패스_22" data-name="패스 22" class="cls-2" d="M1.607.647H19.45a2.051,2.051,0,0,1,2.107,1.984v8.235a2.051,2.051,0,0,1-2.107,1.984H1.607A2.051,2.051,0,0,1-.5,10.867V2.631A2.051,2.051,0,0,1,1.607.647ZM19.45,11.453a.685.685,0,0,0,.738-.587V2.631a.685.685,0,0,0-.738-.587H1.607a.685.685,0,0,0-.738.587v8.235a.685.685,0,0,0,.738.587Z" transform="translate(0.5 4.671)"/>
  </g>
</svg>
