<svg xmlns="http://www.w3.org/2000/svg" width="181.604" height="126" viewBox="0 0 181.604 126">
  <defs>
    <style>
      .cls-1 {
        fill: #97ddff;
      }

      .cls-2 {
        fill: #32b2ef;
      }
    </style>
  </defs>
  <g id="FolderOpen" transform="translate(-733 -345)">
    <path id="합치기_2" data-name="합치기 2" class="cls-1" d="M7.119,121.892A7.278,7.278,0,0,1,0,114.466V7.163A7.142,7.142,0,0,1,7.119,0S43.485.02,46.583,0s4.106,1.856,5.88,3.953c.331.392,2.03,2.979,4.825,6.494a6.961,6.961,0,0,0,3.432,1.617H152.88A7.278,7.278,0,0,1,160,19.49v94.975a7.279,7.279,0,0,1-7.12,7.427Z" transform="translate(733 345)"/>
    <path id="패스_21" data-name="패스 21" class="cls-2" d="M32.6,6.456h138a11,11,0,0,1,11,11S162.029,87.428,160,95s-4.925,11-11,11H11A11,11,0,0,1,0,95S19.9,24.019,21.6,17.456,26.529,6.456,32.6,6.456Z" transform="translate(733 365)"/>
  </g>
</svg>
