<svg xmlns="http://www.w3.org/2000/svg" width="770" height="700" viewBox="0 0 770 700">
  <defs>
    <style>
      .cls-1 {
        fill: none;
      }

      .cls-2 {
        stroke: #fff;
        stroke-width: 2.5px;
      }

      .cls-3 {
        fill: #fff;
      }

      .cls-4 {
        fill: #707070;
      }
    </style>
  </defs>
  <g id="FrontImage" transform="translate(-308 -426)">
    <rect id="사각형_7" data-name="사각형 7" class="cls-1" width="770" height="700" transform="translate(308 426)"/>
    <g id="fox" transform="translate(677.272 526.294)">
      <g id="그룹_3" data-name="그룹 3" transform="translate(0 0.001)">
        <path id="합치기_1" data-name="합치기 1" class="cls-2" d="M24.207,49.971h-.124A24.986,24.986,0,0,1,.742,33.894v0q-.4-1.04-.7-2.124a1.126,1.126,0,0,1,1.072-1.428H4.935a1.44,1.44,0,0,0,1.446-1.446V15.025a19.482,19.482,0,0,1,1.758-8h0a17.832,17.832,0,0,1,5.042-6.6,2.038,2.038,0,0,1,2.5,0,18.2,18.2,0,0,1,4.978,6.621h-.022a21.1,21.1,0,0,1,1.27,3.658h4.6a20.932,20.932,0,0,1,1.246-3.6h0a18.25,18.25,0,0,1,5-6.675,2.038,2.038,0,0,1,2.5,0,17.96,17.96,0,0,1,5.1,6.711h-.016a19.448,19.448,0,0,1,1.71,7.887V28.895A1.44,1.44,0,0,0,43.5,30.341h3.818A1.128,1.128,0,0,1,48.4,31.769c-.2.732-.446,1.45-.714,2.154h-.012A25.046,25.046,0,0,1,24.329,49.969Z" transform="translate(0.005 0)"/>
      </g>
      <g id="그룹_4" data-name="그룹 4" transform="translate(0.01 0)">
        <path id="패스_1" data-name="패스 1" d="M29.759,6.733a20.988,20.988,0,0,0-1.246,3.6h-4.6a21,21,0,0,0-1.276-3.67L16.33,5.023,10.145,6.651a19.488,19.488,0,0,0-1.758,8V28.519a1.44,1.44,0,0,1-1.446,1.446H3.119a1.126,1.126,0,0,0-1.07,1.428q.31,1.1.718,2.158L26.241,42.2,49.7,33.55q.4-1.056.716-2.154a1.128,1.128,0,0,0-1.088-1.428H45.5a1.44,1.44,0,0,1-1.446-1.446V14.656a19.456,19.456,0,0,0-1.718-7.9l-6.365-1.73Z" transform="translate(-2.007 0.372)"/>
        <path id="패스_4" data-name="패스 4" d="M49.385,20.99H37.845a14.942,14.942,0,0,0-8.709,2.8l-3.23,2.3-3.23-2.3a14.941,14.941,0,0,0-8.709-2.8H2.42A24.986,24.986,0,0,0,25.764,37.07h.25a25.042,25.042,0,0,0,23.37-16.08Z" transform="translate(-1.685 12.901)"/>
        <g id="그룹_1" data-name="그룹 1" transform="translate(8.124 0)">
          <path id="패스_5" data-name="패스 5" d="M19.089,9.049a18.19,18.19,0,0,0-4.978-6.621,2.036,2.036,0,0,0-2.5,0A17.836,17.836,0,0,0,6.56,9.049Z" transform="translate(-6.56 -2)"/>
          <path id="패스_6" data-name="패스 6" d="M25.063,2.428a2.036,2.036,0,0,0-2.5,0A18.25,18.25,0,0,0,17.55,9.139H30.167a17.944,17.944,0,0,0-5.1-6.711Z" transform="translate(2.064 -2)"/>
          <path id="패스_7" data-name="패스 7" d="M11,18.784a1.784,1.784,0,0,1,3.568,0v1.784a1.784,1.784,0,1,1-3.568,0Z" transform="translate(-3.075 9.771)"/>
          <path id="패스_8" data-name="패스 8" d="M18,18.784a1.784,1.784,0,1,1,3.568,0v1.784a1.784,1.784,0,1,1-3.568,0Z" transform="translate(2.416 9.771)"/>
          <path id="패스_9" data-name="패스 9" class="cls-3" d="M17.971,29.271A5.439,5.439,0,0,0,22.5,31.715a.892.892,0,1,0-.018-1.784,3.644,3.644,0,0,1-3.64-3.64.9.9,0,0,0-.094-.4,1.566,1.566,0,0,0,.308-.24l2.01-2.018a1.544,1.544,0,0,0-1.088-2.642H15.954a1.546,1.546,0,0,0-1.106,2.642l2.02,2.016a1.556,1.556,0,0,0,.294.23.9.9,0,0,0-.1.412,3.644,3.644,0,0,1-3.64,3.64.892.892,0,1,0,0,1.784,5.5,5.5,0,0,0,4.546-2.444Z" transform="translate(-1.873 8.457)"/>
          <path id="패스_16" data-name="패스 16" d="M12.639,4.015a15.42,15.42,0,0,1,4.71,7.851A17.848,17.848,0,0,0,7.07,19.647v-4.18A15.411,15.411,0,0,1,12.192,4.015a.35.35,0,0,1,.446,0Z" transform="translate(-6.16 -0.483)"/>
          <path id="패스_17" data-name="패스 17" d="M28.6,15.5v4.122a17.82,17.82,0,0,0-10.3-7.767,15.337,15.337,0,0,1,4.694-7.835.35.35,0,0,1,.446,0A15.3,15.3,0,0,1,28.6,15.5Z" transform="translate(2.652 -0.477)"/>
        </g>
      </g>
    </g>
    <path id="패스_4-2" data-name="패스 4" d="M16.692,0-.7-58.11H14.04l6.63,26.52q1.326,4.68,2.3,9.2t2.223,9.36h.39q1.326-4.836,2.3-9.36t2.223-9.2L36.66-58.11h14.2L33.462,0ZM55.77,0V-44.382H69.654V0Zm6.942-50.544a7.938,7.938,0,0,1-5.616-1.95A6.779,6.779,0,0,1,54.99-57.72,6.684,6.684,0,0,1,57.1-62.868a7.938,7.938,0,0,1,5.616-1.95,7.97,7.97,0,0,1,5.577,1.95,6.624,6.624,0,0,1,2.145,5.148,6.717,6.717,0,0,1-2.145,5.226A7.97,7.97,0,0,1,62.712-50.544ZM94.068,1.092A26.031,26.031,0,0,1,85.1-.624a27.794,27.794,0,0,1-8.112-4.524l6.162-8.658a29.981,29.981,0,0,0,5.811,3.471A13.489,13.489,0,0,0,94.38-9.126a6.69,6.69,0,0,0,3.978-.936,3.041,3.041,0,0,0,1.248-2.574A2.759,2.759,0,0,0,98.358-14.9a14.6,14.6,0,0,0-3.276-1.755q-2.028-.819-4.29-1.677a35.037,35.037,0,0,1-5.265-2.73A14.411,14.411,0,0,1,81.2-25.233a10.8,10.8,0,0,1-1.716-6.2,12.8,12.8,0,0,1,2.145-7.371,14.116,14.116,0,0,1,6.006-4.914,21.588,21.588,0,0,1,9.009-1.755,22.066,22.066,0,0,1,9.126,1.755,32.829,32.829,0,0,1,6.708,3.939l-6.162,8.268a27.088,27.088,0,0,0-4.719-2.73,11.081,11.081,0,0,0-4.485-1.014,6.11,6.11,0,0,0-3.549.819,2.755,2.755,0,0,0-1.131,2.379,2.631,2.631,0,0,0,1.131,2.184,11.67,11.67,0,0,0,3.081,1.56q1.95.7,4.212,1.56a39.133,39.133,0,0,1,4.173,1.833,17.217,17.217,0,0,1,3.783,2.613,11.723,11.723,0,0,1,2.73,3.7,12.062,12.062,0,0,1,1.014,5.187,13.463,13.463,0,0,1-2.106,7.371,14.235,14.235,0,0,1-6.2,5.226A24.029,24.029,0,0,1,94.068,1.092Zm39.936,0q-7.332,0-10.608-4.875T120.12-16.926V-44.382H134v25.74q0,4.524,1.248,6.2a4.542,4.542,0,0,0,3.9,1.677,7.4,7.4,0,0,0,4.017-1.053,12.7,12.7,0,0,0,3.393-3.471V-44.382h13.884V0h-11.31l-1.014-6.084h-.312A23.475,23.475,0,0,1,141.8-.858,14.973,14.973,0,0,1,134,1.092Zm48.828,0a13.078,13.078,0,0,1-7.02-1.833,12.388,12.388,0,0,1-4.563-4.914,14.426,14.426,0,0,1-1.6-6.747,12.5,12.5,0,0,1,5.85-10.959q5.85-3.939,18.8-5.343a7.787,7.787,0,0,0-.858-3.081,4.494,4.494,0,0,0-2.145-1.95,8.915,8.915,0,0,0-3.705-.663,16.028,16.028,0,0,0-5.46,1.014,42.345,42.345,0,0,0-6.162,2.886l-4.836-9.126a45.653,45.653,0,0,1,6.045-3.081,38.493,38.493,0,0,1,6.357-2.028,30.311,30.311,0,0,1,6.708-.741,20.02,20.02,0,0,1,9.75,2.184,14.248,14.248,0,0,1,6.084,6.669,26.939,26.939,0,0,1,2.106,11.427V0h-11.31l-.936-4.446h-.39a26.667,26.667,0,0,1-5.889,3.978A15.2,15.2,0,0,1,182.832,1.092ZM187.59-9.672a6.989,6.989,0,0,0,3.666-.936,13.583,13.583,0,0,0,3.042-2.574v-7.1a28.652,28.652,0,0,0-6.825,1.56,8.572,8.572,0,0,0-3.588,2.34,4.544,4.544,0,0,0-1.053,2.886,3.331,3.331,0,0,0,1.287,2.886A5.784,5.784,0,0,0,187.59-9.672ZM231.5,1.092a12.862,12.862,0,0,1-7.527-1.95,10.528,10.528,0,0,1-3.939-5.46,25.648,25.648,0,0,1-1.17-8.112V-62.322h13.884v48.36a4.236,4.236,0,0,0,.819,3,2.331,2.331,0,0,0,1.6.819,5.7,5.7,0,0,0,.7-.039q.312-.039.858-.117L238.368-.078a14.8,14.8,0,0,1-2.808.819A20.481,20.481,0,0,1,231.5,1.092ZM273.7,0,256.308-58.11H271.05l6.63,26.52q1.326,4.68,2.3,9.2t2.223,9.36h.39q1.326-4.836,2.3-9.36t2.223-9.2l6.552-26.52h14.2L290.472,0Zm56.082,1.092a21.539,21.539,0,0,1-10.608-2.769,21.267,21.267,0,0,1-8.073-8,24.3,24.3,0,0,1-3.081-12.558A24.092,24.092,0,0,1,311.1-34.749a21.346,21.346,0,0,1,8.073-7.956,21.539,21.539,0,0,1,10.608-2.769,21.646,21.646,0,0,1,8.112,1.56,20.784,20.784,0,0,1,6.942,4.563,22.071,22.071,0,0,1,4.836,7.293,25.289,25.289,0,0,1,1.794,9.828,24.3,24.3,0,0,1-3.081,12.558,21.353,21.353,0,0,1-8.034,8A21.323,21.323,0,0,1,329.784,1.092Zm0-11.232a6.183,6.183,0,0,0,4.251-1.482,8.612,8.612,0,0,0,2.457-4.212,23.4,23.4,0,0,0,.78-6.4,22.976,22.976,0,0,0-.78-6.357,8.6,8.6,0,0,0-2.457-4.173,6.183,6.183,0,0,0-4.251-1.482,6.183,6.183,0,0,0-4.251,1.482,8.85,8.85,0,0,0-2.5,4.173,21.945,21.945,0,0,0-.819,6.357,22.351,22.351,0,0,0,.819,6.4,8.857,8.857,0,0,0,2.5,4.212A6.183,6.183,0,0,0,329.784-10.14Zm50,11.232A22.761,22.761,0,0,1,368.55-1.677a20.193,20.193,0,0,1-7.917-8,25.336,25.336,0,0,1-2.925-12.558,23.181,23.181,0,0,1,3.237-12.519,21.76,21.76,0,0,1,8.58-7.956,24.639,24.639,0,0,1,11.505-2.769,19.3,19.3,0,0,1,7.254,1.287,19.794,19.794,0,0,1,5.694,3.471L387.5-31.9a10.666,10.666,0,0,0-2.847-1.794,7.4,7.4,0,0,0-2.769-.546,9.458,9.458,0,0,0-5.3,1.482,9.5,9.5,0,0,0-3.471,4.173A15.407,15.407,0,0,0,371.9-22.23a15.257,15.257,0,0,0,1.248,6.4,10.045,10.045,0,0,0,3.393,4.212,8.246,8.246,0,0,0,4.8,1.482,9.6,9.6,0,0,0,4.056-.9,18.888,18.888,0,0,0,3.666-2.223l5.382,9.126a19.036,19.036,0,0,1-7.215,4.056A26.193,26.193,0,0,1,379.782,1.092Zm32.058,0a13.078,13.078,0,0,1-7.02-1.833,12.388,12.388,0,0,1-4.563-4.914,14.426,14.426,0,0,1-1.6-6.747,12.5,12.5,0,0,1,5.85-10.959q5.85-3.939,18.8-5.343a7.787,7.787,0,0,0-.858-3.081,4.494,4.494,0,0,0-2.145-1.95A8.915,8.915,0,0,0,416.6-34.4a16.029,16.029,0,0,0-5.46,1.014,42.345,42.345,0,0,0-6.162,2.886l-4.836-9.126a45.653,45.653,0,0,1,6.045-3.081,38.493,38.493,0,0,1,6.357-2.028,30.311,30.311,0,0,1,6.708-.741A20.02,20.02,0,0,1,429-43.29a14.248,14.248,0,0,1,6.084,6.669,26.94,26.94,0,0,1,2.106,11.427V0H425.88l-.936-4.446h-.39a26.667,26.667,0,0,1-5.889,3.978A15.2,15.2,0,0,1,411.84,1.092ZM416.6-9.672a6.989,6.989,0,0,0,3.666-.936,13.583,13.583,0,0,0,3.042-2.574v-7.1a28.651,28.651,0,0,0-6.825,1.56,8.571,8.571,0,0,0-3.588,2.34,4.544,4.544,0,0,0-1.053,2.886,3.331,3.331,0,0,0,1.287,2.886A5.784,5.784,0,0,0,416.6-9.672Z" transform="translate(481 803)"/>
    <path id="패스_3" data-name="패스 3" class="cls-1" d="M-226.856.2a4.518,4.518,0,0,1-1.8-.357A4.233,4.233,0,0,1-230.118-1.2a4.819,4.819,0,0,1-.98-1.673,6.747,6.747,0,0,1-.35-2.261,6.525,6.525,0,0,1,.364-2.254,5.061,5.061,0,0,1,.994-1.687,4.221,4.221,0,0,1,1.484-1.057,4.628,4.628,0,0,1,1.834-.364,3.571,3.571,0,0,1,1.694.392,4.467,4.467,0,0,1,1.218.91l-.868,1.036a3.671,3.671,0,0,0-.9-.665,2.372,2.372,0,0,0-1.113-.259,2.675,2.675,0,0,0-1.575.476,3.156,3.156,0,0,0-1.064,1.344,5.123,5.123,0,0,0-.385,2.086,5.544,5.544,0,0,0,.364,2.107,3.023,3.023,0,0,0,1.036,1.365,2.666,2.666,0,0,0,1.582.476,2.578,2.578,0,0,0,1.253-.3,3.917,3.917,0,0,0,1.015-.8l.882,1.036a4.455,4.455,0,0,1-1.421,1.113A4.059,4.059,0,0,1-226.856.2Zm7.98,0a3.5,3.5,0,0,1-1.785-.483A3.624,3.624,0,0,1-222-1.673a4.354,4.354,0,0,1-.511-2.177A4.385,4.385,0,0,1-222-6.041a3.572,3.572,0,0,1,1.344-1.379,3.54,3.54,0,0,1,1.785-.476,3.511,3.511,0,0,1,1.358.273,3.452,3.452,0,0,1,1.162.791,3.762,3.762,0,0,1,.8,1.267,4.668,4.668,0,0,1,.294,1.715,4.354,4.354,0,0,1-.511,2.177A3.658,3.658,0,0,1-217.1-.287,3.426,3.426,0,0,1-218.876.2Zm0-1.344a1.672,1.672,0,0,0,1.043-.336,2.125,2.125,0,0,0,.679-.945,3.891,3.891,0,0,0,.238-1.421,3.891,3.891,0,0,0-.238-1.421,2.175,2.175,0,0,0-.679-.952,1.649,1.649,0,0,0-1.043-.343,1.67,1.67,0,0,0-1.057.343,2.174,2.174,0,0,0-.679.952,3.891,3.891,0,0,0-.238,1.421,3.891,3.891,0,0,0,.238,1.421,2.125,2.125,0,0,0,.679.945A1.693,1.693,0,0,0-218.876-1.148ZM-213.36,0V-7.714h1.316l.14,1.078h.028a6.307,6.307,0,0,1,1.148-.889,2.66,2.66,0,0,1,1.4-.371,2.062,2.062,0,0,1,1.8.791,3.843,3.843,0,0,1,.567,2.261V0h-1.61V-4.648a2.5,2.5,0,0,0-.308-1.421,1.142,1.142,0,0,0-.994-.427,1.741,1.741,0,0,0-.945.259,5.546,5.546,0,0,0-.931.777V0Zm11.326.2a2.442,2.442,0,0,1-1.379-.343,1.9,1.9,0,0,1-.735-.952,4.11,4.11,0,0,1-.224-1.421V-6.412h-1.12v-1.2l1.2-.1.182-2.128h1.344v2.128h2v1.3h-2v3.906a1.729,1.729,0,0,0,.266,1.043,1.012,1.012,0,0,0,.868.357,1.736,1.736,0,0,0,.42-.056,2.776,2.776,0,0,0,.392-.126l.294,1.19q-.308.1-.693.2A3.31,3.31,0,0,1-202.034.2Zm4.382,0a2.393,2.393,0,0,1-1.169-.28,2.063,2.063,0,0,1-.805-.784,2.292,2.292,0,0,1-.294-1.176,2.143,2.143,0,0,1,1.1-1.925,8.792,8.792,0,0,1,3.507-.945,2.887,2.887,0,0,0-.14-.826,1.211,1.211,0,0,0-.441-.609,1.482,1.482,0,0,0-.889-.231,2.942,2.942,0,0,0-1.162.238,8.152,8.152,0,0,0-1.064.546l-.6-1.092a8.876,8.876,0,0,1,.9-.483,6.072,6.072,0,0,1,1.05-.378A4.558,4.558,0,0,1-196.5-7.9a2.942,2.942,0,0,1,1.582.385A2.311,2.311,0,0,1-194-6.4a4.615,4.615,0,0,1,.3,1.764V0h-1.316l-.126-.882h-.056a5.68,5.68,0,0,1-1.134.763A2.85,2.85,0,0,1-197.652.2Zm.49-1.288a1.966,1.966,0,0,0,.938-.231,4.328,4.328,0,0,0,.91-.679V-3.878a8.029,8.029,0,0,0-1.806.371,2.311,2.311,0,0,0-.959.574,1.126,1.126,0,0,0-.287.763.948.948,0,0,0,.35.826A1.423,1.423,0,0,0-197.162-1.092ZM-188.286.2a3.647,3.647,0,0,1-1.876-.483,3.493,3.493,0,0,1-1.316-1.386,4.506,4.506,0,0,1-.49-2.177,4.246,4.246,0,0,1,.532-2.191,3.642,3.642,0,0,1,1.4-1.379A3.839,3.839,0,0,1-188.16-7.9a3.049,3.049,0,0,1,1.288.252,3.835,3.835,0,0,1,.966.63l-.8,1.05a2.684,2.684,0,0,0-.644-.441,1.663,1.663,0,0,0-.728-.161,1.992,1.992,0,0,0-1.148.343,2.314,2.314,0,0,0-.791.952A3.3,3.3,0,0,0-190.3-3.85a3.372,3.372,0,0,0,.28,1.421,2.256,2.256,0,0,0,.77.945,1.933,1.933,0,0,0,1.12.336,2.063,2.063,0,0,0,.91-.2,3.685,3.685,0,0,0,.77-.5l.672,1.078a3.715,3.715,0,0,1-1.19.721A3.749,3.749,0,0,1-188.286.2Zm6.482,0a2.442,2.442,0,0,1-1.379-.343,1.9,1.9,0,0,1-.735-.952,4.11,4.11,0,0,1-.224-1.421V-6.412h-1.12v-1.2l1.2-.1.182-2.128h1.344v2.128h2v1.3h-2v3.906a1.729,1.729,0,0,0,.266,1.043,1.012,1.012,0,0,0,.868.357,1.736,1.736,0,0,0,.42-.056,2.776,2.776,0,0,0,.392-.126l.294,1.19q-.308.1-.693.2A3.31,3.31,0,0,1-181.8.2ZM-162.05,0l-2.184-7.476h.868l1.3,4.718q.126.532.245,1.022t.231,1.008h.07q.14-.518.266-1.008t.266-1.022l1.316-4.718h.91l1.33,4.718q.14.532.273,1.022l.273,1.008h.056q.126-.518.252-1.008t.266-1.022l1.26-4.718h.812L-156.338,0h-1.05l-1.26-4.494q-.154-.532-.28-1.064t-.28-1.078h-.07q-.126.546-.259,1.085t-.3,1.085L-161.07,0Zm12.306.182a3.217,3.217,0,0,1-1.673-.462,3.308,3.308,0,0,1-1.239-1.337,4.46,4.46,0,0,1-.462-2.107,4.535,4.535,0,0,1,.462-2.128A3.3,3.3,0,0,1-151.417-7.2a3.217,3.217,0,0,1,1.673-.462,3.216,3.216,0,0,1,1.288.266,3.205,3.205,0,0,1,1.085.77,3.581,3.581,0,0,1,.735,1.239,4.853,4.853,0,0,1,.266,1.659,4.4,4.4,0,0,1-.469,2.107A3.391,3.391,0,0,1-148.071-.28,3.169,3.169,0,0,1-149.744.182Zm0-.714a2.227,2.227,0,0,0,1.3-.4,2.681,2.681,0,0,0,.9-1.12,3.994,3.994,0,0,0,.329-1.673,4.03,4.03,0,0,0-.329-1.687,2.732,2.732,0,0,0-.9-1.127,2.2,2.2,0,0,0-1.3-.406,2.2,2.2,0,0,0-1.3.406,2.682,2.682,0,0,0-.9,1.127,4.106,4.106,0,0,0-.322,1.687,4.068,4.068,0,0,0,.322,1.673,2.632,2.632,0,0,0,.9,1.12A2.226,2.226,0,0,0-149.744-.532Zm5.558.532V-7.476h.672l.1,1.386h.028a3.756,3.756,0,0,1,.924-1.127,1.854,1.854,0,0,1,1.19-.441,2.158,2.158,0,0,1,.406.035,1.349,1.349,0,0,1,.35.119l-.168.728q-.182-.056-.322-.091a1.546,1.546,0,0,0-.364-.035,1.713,1.713,0,0,0-1.036.427,3.489,3.489,0,0,0-.966,1.463V0Zm5.026,0V-11.13h.812v8.05h.028l3.57-4.4h.924l-2.436,2.982L-133.434,0h-.9l-2.408-3.92-1.61,1.9V0Zm9.94.182a3.38,3.38,0,0,1-1.757-.469,3.384,3.384,0,0,1-1.26-1.337,4.363,4.363,0,0,1-.469-2.1,4.748,4.748,0,0,1,.266-1.638A3.67,3.67,0,0,1-131.7-6.6a3.336,3.336,0,0,1,1.057-.784,2.861,2.861,0,0,1,1.218-.273,2.792,2.792,0,0,1,1.54.413,2.674,2.674,0,0,1,.994,1.19,4.529,4.529,0,0,1,.35,1.869q0,.154-.007.3a2.29,2.29,0,0,1-.035.3h-5.292A3.811,3.811,0,0,0-131.509-2,2.734,2.734,0,0,0-130.564-.9a2.5,2.5,0,0,0,1.414.4,3.109,3.109,0,0,0,1.078-.175,3.908,3.908,0,0,0,.9-.469l.322.6a6.345,6.345,0,0,1-1.008.5A3.66,3.66,0,0,1-129.22.182Zm-2.66-4.424h4.578a3.1,3.1,0,0,0-.574-2.03,1.92,1.92,0,0,0-1.554-.686,2.154,2.154,0,0,0-1.134.322,2.549,2.549,0,0,0-.882.924A3.584,3.584,0,0,0-131.88-4.242ZM-124.558,0V-7.476h.672l.1,1.386h.028a3.755,3.755,0,0,1,.924-1.127,1.854,1.854,0,0,1,1.19-.441,2.158,2.158,0,0,1,.406.035,1.349,1.349,0,0,1,.35.119l-.168.728q-.182-.056-.322-.091a1.546,1.546,0,0,0-.364-.035,1.713,1.713,0,0,0-1.036.427,3.489,3.489,0,0,0-.966,1.463V0Zm4.7.182a.7.7,0,0,1-.5-.21.726.726,0,0,1-.217-.546.738.738,0,0,1,.217-.567.707.707,0,0,1,.5-.2.7.7,0,0,1,.5.2.752.752,0,0,1,.21.567.739.739,0,0,1-.21.546A.687.687,0,0,1-119.854.182Zm5.6,3.374a4.712,4.712,0,0,1-1.624-.252,2.438,2.438,0,0,1-1.064-.707,1.644,1.644,0,0,1-.378-1.085,1.785,1.785,0,0,1,.294-.959,2.712,2.712,0,0,1,.826-.819v-.07a1.365,1.365,0,0,1-.483-.469,1.355,1.355,0,0,1-.189-.735,1.3,1.3,0,0,1,.28-.84,2.624,2.624,0,0,1,.546-.532v-.056a3.089,3.089,0,0,1-.665-.833,2.391,2.391,0,0,1-.3-1.211,2.628,2.628,0,0,1,.357-1.379,2.536,2.536,0,0,1,.966-.931,2.722,2.722,0,0,1,1.337-.336,2.758,2.758,0,0,1,.581.056,3.026,3.026,0,0,1,.441.126h2.534v.686h-1.68a2.108,2.108,0,0,1,.56.756A2.476,2.476,0,0,1-111.706-5a2.6,2.6,0,0,1-.357,1.365,2.565,2.565,0,0,1-.952.931,2.671,2.671,0,0,1-1.337.336,2.44,2.44,0,0,1-.616-.084,2.452,2.452,0,0,1-.574-.224,1.923,1.923,0,0,0-.413.434,1.029,1.029,0,0,0-.175.6.873.873,0,0,0,.294.665A1.658,1.658,0,0,0-114.73-.7h1.582a3.371,3.371,0,0,1,1.869.413,1.468,1.468,0,0,1,.609,1.309,2.024,2.024,0,0,1-.441,1.232,3.07,3.07,0,0,1-1.246.945A4.649,4.649,0,0,1-114.254,3.556Zm-.1-6.552a1.762,1.762,0,0,0,.924-.252,1.9,1.9,0,0,0,.679-.707,2.1,2.1,0,0,0,.259-1.057,2.136,2.136,0,0,0-.252-1.064,1.76,1.76,0,0,0-.672-.686A1.869,1.869,0,0,0-114.352-7a1.842,1.842,0,0,0-.924.238,1.724,1.724,0,0,0-.665.679,2.176,2.176,0,0,0-.245,1.071,2.146,2.146,0,0,0,.252,1.057,1.851,1.851,0,0,0,.672.707A1.737,1.737,0,0,0-114.352-3Zm.182,5.922a3.463,3.463,0,0,0,1.421-.266,2.474,2.474,0,0,0,.931-.679,1.333,1.333,0,0,0,.336-.847.9.9,0,0,0-.434-.861,2.572,2.572,0,0,0-1.246-.245h-1.54q-.126,0-.385-.028a4.473,4.473,0,0,1-.553-.1,2.222,2.222,0,0,0-.693.735,1.622,1.622,0,0,0-.217.777,1.269,1.269,0,0,0,.623,1.092A3.124,3.124,0,0,0-114.17,2.926Zm7.644-2.744A3.217,3.217,0,0,1-108.2-.28a3.308,3.308,0,0,1-1.239-1.337,4.46,4.46,0,0,1-.462-2.107,4.535,4.535,0,0,1,.462-2.128A3.3,3.3,0,0,1-108.2-7.2a3.217,3.217,0,0,1,1.673-.462,3.216,3.216,0,0,1,1.288.266,3.205,3.205,0,0,1,1.085.77,3.581,3.581,0,0,1,.735,1.239,4.852,4.852,0,0,1,.266,1.659,4.4,4.4,0,0,1-.469,2.107A3.391,3.391,0,0,1-104.853-.28,3.169,3.169,0,0,1-106.526.182Zm0-.714a2.226,2.226,0,0,0,1.3-.4,2.681,2.681,0,0,0,.9-1.12,3.994,3.994,0,0,0,.329-1.673,4.03,4.03,0,0,0-.329-1.687,2.732,2.732,0,0,0-.9-1.127,2.2,2.2,0,0,0-1.3-.406,2.2,2.2,0,0,0-1.3.406,2.682,2.682,0,0,0-.9,1.127,4.106,4.106,0,0,0-.322,1.687,4.069,4.069,0,0,0,.322,1.673,2.632,2.632,0,0,0,.9,1.12A2.226,2.226,0,0,0-106.526-.532Zm5.558.532V-7.476h.672l.1,1.148h.028A6.787,6.787,0,0,1-99-7.273a2.526,2.526,0,0,1,1.379-.385,2.024,2.024,0,0,1,1.715.721,3.526,3.526,0,0,1,.553,2.163V0h-.812V-4.662a3.037,3.037,0,0,0-.385-1.715,1.434,1.434,0,0,0-1.267-.553,2.089,2.089,0,0,0-1.162.336,7.255,7.255,0,0,0-1.176,1.008V0Zm8.078,3.36a2.137,2.137,0,0,1-.42-.042,1.677,1.677,0,0,1-.364-.112l.168-.686a1.939,1.939,0,0,0,.28.077,1.579,1.579,0,0,0,.322.035,1.412,1.412,0,0,0,1.134-.539A4.268,4.268,0,0,0-91.042.742l.2-.644L-93.9-7.476h.868L-91.294-2.9q.182.49.392,1.043T-90.5-.8h.07q.168-.5.343-1.057t.329-1.043l1.526-4.578h.826L-90.314.868a5.812,5.812,0,0,1-.553,1.211A3.127,3.127,0,0,1-91.7,3,1.966,1.966,0,0,1-92.89,3.36ZM-83.1.182A3.217,3.217,0,0,1-84.777-.28a3.308,3.308,0,0,1-1.239-1.337,4.46,4.46,0,0,1-.462-2.107,4.535,4.535,0,0,1,.462-2.128A3.3,3.3,0,0,1-84.777-7.2,3.217,3.217,0,0,1-83.1-7.658a3.216,3.216,0,0,1,1.288.266,3.205,3.205,0,0,1,1.085.77A3.581,3.581,0,0,1-80-5.383a4.852,4.852,0,0,1,.266,1.659A4.4,4.4,0,0,1-80.2-1.617,3.391,3.391,0,0,1-81.431-.28,3.169,3.169,0,0,1-83.1.182Zm0-.714a2.226,2.226,0,0,0,1.3-.4,2.681,2.681,0,0,0,.9-1.12,3.994,3.994,0,0,0,.329-1.673A4.03,4.03,0,0,0-80.9-5.411a2.732,2.732,0,0,0-.9-1.127,2.2,2.2,0,0,0-1.3-.406,2.2,2.2,0,0,0-1.3.406,2.682,2.682,0,0,0-.9,1.127,4.106,4.106,0,0,0-.322,1.687A4.069,4.069,0,0,0-85.3-2.051a2.632,2.632,0,0,0,.9,1.12A2.226,2.226,0,0,0-83.1-.532ZM-72.884,2.3a5.913,5.913,0,0,1-2.079-.357A4.705,4.705,0,0,1-76.636.882,4.849,4.849,0,0,1-77.749-.833a6.255,6.255,0,0,1-.4-2.3,7.277,7.277,0,0,1,.5-2.765,6.528,6.528,0,0,1,1.372-2.128,5.969,5.969,0,0,1,1.995-1.358,6.08,6.08,0,0,1,2.359-.469,5.21,5.21,0,0,1,2.611.623,4.319,4.319,0,0,1,1.7,1.736A5.376,5.376,0,0,1-67-4.9a5.266,5.266,0,0,1-.266,1.75,3.97,3.97,0,0,1-.7,1.267,3.167,3.167,0,0,1-.945.777,2.159,2.159,0,0,1-1,.266,1.793,1.793,0,0,1-1.036-.287,1.139,1.139,0,0,1-.476-.889h-.028a5.053,5.053,0,0,1-.889.756,1.8,1.8,0,0,1-1.015.322,1.7,1.7,0,0,1-1.26-.546,2.176,2.176,0,0,1-.532-1.582,3.893,3.893,0,0,1,.2-1.2A4.161,4.161,0,0,1-74.382-5.4a3.013,3.013,0,0,1,.917-.854A2.342,2.342,0,0,1-72.24-6.58a1.449,1.449,0,0,1,.735.189,1.463,1.463,0,0,1,.539.553h.028l.154-.616h.588l-.56,2.954q-.5,2.03.91,2.03a1.623,1.623,0,0,0,1.008-.4A2.979,2.979,0,0,0-68-3.024a4.463,4.463,0,0,0,.336-1.82,5.33,5.33,0,0,0-.287-1.8A3.815,3.815,0,0,0-68.8-8.029a3.791,3.791,0,0,0-1.358-.9,4.969,4.969,0,0,0-1.834-.315,5.081,5.081,0,0,0-2.037.427A5.564,5.564,0,0,0-75.8-7.588,5.833,5.833,0,0,0-77.035-5.67a6.565,6.565,0,0,0-.455,2.492,5.751,5.751,0,0,0,.336,2.03A4.2,4.2,0,0,0-76.2.371a4.276,4.276,0,0,0,1.477.959,5.121,5.121,0,0,0,1.89.336,4.635,4.635,0,0,0,1.4-.2A5.391,5.391,0,0,0-70.252.938l.294.546a6.157,6.157,0,0,1-1.4.6A5.479,5.479,0,0,1-72.884,2.3Zm-.336-3.864a1.481,1.481,0,0,0,.756-.245,3.611,3.611,0,0,0,.854-.777l.476-2.618a1.86,1.86,0,0,0-.518-.581,1.094,1.094,0,0,0-.6-.161,1.691,1.691,0,0,0-.917.259,2.288,2.288,0,0,0-.693.679A3.523,3.523,0,0,0-74.3-4.1a3.277,3.277,0,0,0-.154.973,1.65,1.65,0,0,0,.357,1.2A1.2,1.2,0,0,0-73.22-1.568Zm10.864,5.124A4.712,4.712,0,0,1-63.98,3.3,2.438,2.438,0,0,1-65.044,2.6a1.644,1.644,0,0,1-.378-1.085,1.785,1.785,0,0,1,.294-.959A2.712,2.712,0,0,1-64.3-.266v-.07a1.365,1.365,0,0,1-.483-.469,1.355,1.355,0,0,1-.189-.735,1.3,1.3,0,0,1,.28-.84,2.624,2.624,0,0,1,.546-.532v-.056a3.089,3.089,0,0,1-.665-.833,2.391,2.391,0,0,1-.3-1.211,2.628,2.628,0,0,1,.357-1.379,2.536,2.536,0,0,1,.966-.931,2.722,2.722,0,0,1,1.337-.336,2.758,2.758,0,0,1,.581.056,3.025,3.025,0,0,1,.441.126H-58.9v.686h-1.68a2.108,2.108,0,0,1,.56.756A2.476,2.476,0,0,1-59.808-5a2.6,2.6,0,0,1-.357,1.365,2.566,2.566,0,0,1-.952.931,2.671,2.671,0,0,1-1.337.336,2.44,2.44,0,0,1-.616-.084,2.452,2.452,0,0,1-.574-.224,1.923,1.923,0,0,0-.413.434,1.029,1.029,0,0,0-.175.6.873.873,0,0,0,.294.665A1.658,1.658,0,0,0-62.832-.7h1.582a3.371,3.371,0,0,1,1.869.413,1.468,1.468,0,0,1,.609,1.309,2.024,2.024,0,0,1-.441,1.232,3.07,3.07,0,0,1-1.246.945A4.649,4.649,0,0,1-62.356,3.556ZM-62.454-3a1.762,1.762,0,0,0,.924-.252,1.9,1.9,0,0,0,.679-.707,2.1,2.1,0,0,0,.259-1.057,2.136,2.136,0,0,0-.252-1.064,1.76,1.76,0,0,0-.672-.686A1.869,1.869,0,0,0-62.454-7a1.842,1.842,0,0,0-.924.238,1.724,1.724,0,0,0-.665.679,2.176,2.176,0,0,0-.245,1.071,2.146,2.146,0,0,0,.252,1.057,1.851,1.851,0,0,0,.672.707A1.737,1.737,0,0,0-62.454-3Zm.182,5.922a3.463,3.463,0,0,0,1.421-.266,2.474,2.474,0,0,0,.931-.679,1.333,1.333,0,0,0,.336-.847.9.9,0,0,0-.434-.861A2.572,2.572,0,0,0-61.264.028H-62.8q-.126,0-.385-.028a4.472,4.472,0,0,1-.553-.1,2.222,2.222,0,0,0-.693.735,1.622,1.622,0,0,0-.217.777,1.269,1.269,0,0,0,.623,1.092A3.124,3.124,0,0,0-62.272,2.926ZM-57.19,0V-7.476h.672l.1,1.148h.028a5.318,5.318,0,0,1,1.113-.945,2.3,2.3,0,0,1,1.239-.385,2.086,2.086,0,0,1,1.379.406,2.161,2.161,0,0,1,.679,1.106,7.458,7.458,0,0,1,1.26-1.1,2.258,2.258,0,0,1,1.274-.413,1.979,1.979,0,0,1,1.666.721,3.493,3.493,0,0,1,.56,2.163V0h-.812V-4.662a2.994,2.994,0,0,0-.392-1.715,1.391,1.391,0,0,0-1.218-.553,1.872,1.872,0,0,0-1.022.336A6.152,6.152,0,0,0-51.8-5.586V0h-.812V-4.662A2.994,2.994,0,0,0-53-6.377a1.391,1.391,0,0,0-1.218-.553,1.955,1.955,0,0,0-1.029.336,5.238,5.238,0,0,0-1.127,1.008V0Zm14.308.182a2.529,2.529,0,0,1-1.092-.231,1.86,1.86,0,0,1-.784-.686,2.09,2.09,0,0,1-.294-1.155,2.057,2.057,0,0,1,1.141-1.883,9.734,9.734,0,0,1,3.6-.917,3.529,3.529,0,0,0-.1-1.071,1.688,1.688,0,0,0-.5-.847A1.565,1.565,0,0,0-42-6.944a3.1,3.1,0,0,0-1.337.287,7.244,7.244,0,0,0-1.015.567l-.35-.6A6.588,6.588,0,0,1-44-7.112a5.477,5.477,0,0,1,.959-.385A3.9,3.9,0,0,1-41.9-7.658a2.387,2.387,0,0,1,1.428.385,2.116,2.116,0,0,1,.763,1.043,4.508,4.508,0,0,1,.231,1.5V0h-.672l-.084-.952h-.056a6.271,6.271,0,0,1-1.2.8A3.007,3.007,0,0,1-42.882.182Zm.168-.7a2.63,2.63,0,0,0,1.19-.287,5.728,5.728,0,0,0,1.218-.861V-4.088a11.138,11.138,0,0,0-2.324.448,2.86,2.86,0,0,0-1.239.714,1.452,1.452,0,0,0-.371.994,1.251,1.251,0,0,0,.448,1.1A1.826,1.826,0,0,0-42.714-.518ZM-36.876,0V-7.476h.812V0Zm.42-9.212a.608.608,0,0,1-.469-.189.7.7,0,0,1-.175-.5.658.658,0,0,1,.175-.476.62.62,0,0,1,.469-.182.626.626,0,0,1,.462.182.644.644,0,0,1,.182.476.686.686,0,0,1-.182.5A.614.614,0,0,1-36.456-9.212ZM-32.284.182a1.038,1.038,0,0,1-.56-.14.811.811,0,0,1-.329-.434,2.134,2.134,0,0,1-.1-.714V-11.13h.812V-1.022a.578.578,0,0,0,.1.371.3.3,0,0,0,.238.119.8.8,0,0,0,.1-.007l.168-.021.126.658-.231.056A1.425,1.425,0,0,1-32.284.182Zm3.08,0a.7.7,0,0,1-.5-.21.726.726,0,0,1-.217-.546.738.738,0,0,1,.217-.567.707.707,0,0,1,.5-.2.7.7,0,0,1,.5.2.752.752,0,0,1,.21.567.739.739,0,0,1-.21.546A.687.687,0,0,1-29.2.182Zm5.74,0A3.308,3.308,0,0,1-25.2-.28a3.231,3.231,0,0,1-1.218-1.337,4.576,4.576,0,0,1-.448-2.107,4.372,4.372,0,0,1,.483-2.128A3.425,3.425,0,0,1-25.116-7.2a3.3,3.3,0,0,1,1.708-.462,2.693,2.693,0,0,1,1.281.28,4.3,4.3,0,0,1,.9.63l-.462.56a3.589,3.589,0,0,0-.763-.539,1.971,1.971,0,0,0-.931-.217,2.341,2.341,0,0,0-1.351.406,2.767,2.767,0,0,0-.938,1.127,3.888,3.888,0,0,0-.343,1.687,3.994,3.994,0,0,0,.329,1.673,2.639,2.639,0,0,0,.917,1.12,2.384,2.384,0,0,0,1.372.4A2.4,2.4,0,0,0-22.33-.77a3.552,3.552,0,0,0,.868-.588l.406.574a4.565,4.565,0,0,1-1.092.693A3.149,3.149,0,0,1-23.464.182Zm6.65,0A3.217,3.217,0,0,1-18.487-.28a3.308,3.308,0,0,1-1.239-1.337,4.46,4.46,0,0,1-.462-2.107,4.535,4.535,0,0,1,.462-2.128A3.3,3.3,0,0,1-18.487-7.2a3.217,3.217,0,0,1,1.673-.462,3.216,3.216,0,0,1,1.288.266,3.205,3.205,0,0,1,1.085.77,3.581,3.581,0,0,1,.735,1.239,4.852,4.852,0,0,1,.266,1.659,4.4,4.4,0,0,1-.469,2.107A3.391,3.391,0,0,1-15.141-.28,3.169,3.169,0,0,1-16.814.182Zm0-.714a2.226,2.226,0,0,0,1.3-.4,2.681,2.681,0,0,0,.9-1.12,3.994,3.994,0,0,0,.329-1.673,4.03,4.03,0,0,0-.329-1.687,2.732,2.732,0,0,0-.9-1.127,2.2,2.2,0,0,0-1.3-.406,2.2,2.2,0,0,0-1.3.406,2.682,2.682,0,0,0-.9,1.127,4.106,4.106,0,0,0-.322,1.687,4.069,4.069,0,0,0,.322,1.673,2.632,2.632,0,0,0,.9,1.12A2.226,2.226,0,0,0-16.814-.532ZM-11.256,0V-7.476h.672l.1,1.148h.028a5.318,5.318,0,0,1,1.113-.945,2.3,2.3,0,0,1,1.239-.385,2.086,2.086,0,0,1,1.379.406,2.161,2.161,0,0,1,.679,1.106,7.458,7.458,0,0,1,1.26-1.1,2.258,2.258,0,0,1,1.274-.413,1.979,1.979,0,0,1,1.666.721,3.493,3.493,0,0,1,.56,2.163V0H-2.1V-4.662a2.994,2.994,0,0,0-.392-1.715A1.391,1.391,0,0,0-3.71-6.93a1.872,1.872,0,0,0-1.022.336A6.152,6.152,0,0,0-5.866-5.586V0h-.812V-4.662A2.994,2.994,0,0,0-7.07-6.377,1.391,1.391,0,0,0-8.288-6.93a1.955,1.955,0,0,0-1.029.336,5.238,5.238,0,0,0-1.127,1.008V0ZM-132.692,18V10.524h.812V18Zm.42-9.212a.608.608,0,0,1-.469-.189.7.7,0,0,1-.175-.5.658.658,0,0,1,.175-.476.62.62,0,0,1,.469-.182.626.626,0,0,1,.462.182.644.644,0,0,1,.182.476.686.686,0,0,1-.182.5A.614.614,0,0,1-132.272,8.788ZM-129.094,18V10.524h.672l.1,1.148h.028a6.787,6.787,0,0,1,1.169-.945,2.526,2.526,0,0,1,1.379-.385,2.024,2.024,0,0,1,1.715.721,3.526,3.526,0,0,1,.553,2.163V18h-.812V13.338a3.037,3.037,0,0,0-.385-1.715,1.434,1.434,0,0,0-1.267-.553,2.089,2.089,0,0,0-1.162.336,7.255,7.255,0,0,0-1.176,1.008V18Zm10.766.182a2.938,2.938,0,0,1-1.631-.448,2.923,2.923,0,0,1-1.078-1.323,5.291,5.291,0,0,1-.385-2.135,4.438,4.438,0,0,1,.462-2.086,3.529,3.529,0,0,1,1.211-1.365,2.951,2.951,0,0,1,1.631-.483,2.727,2.727,0,0,1,1.176.238,5.115,5.115,0,0,1,1.036.672l-.042-1.358V6.87h.826V18h-.686l-.084-.952h-.028a4.808,4.808,0,0,1-1.064.8A2.71,2.71,0,0,1-118.328,18.182Zm.14-.714a2.344,2.344,0,0,0,1.148-.3,4.605,4.605,0,0,0,1.092-.875V11.98a3.857,3.857,0,0,0-1.064-.714,2.669,2.669,0,0,0-1.036-.21,2.055,2.055,0,0,0-1.267.427,2.979,2.979,0,0,0-.9,1.148,3.852,3.852,0,0,0-.336,1.645,4.754,4.754,0,0,0,.273,1.687,2.389,2.389,0,0,0,.805,1.113A2.111,2.111,0,0,0-118.188,17.468Zm5.852.532V10.524h.812V18Zm.42-9.212a.608.608,0,0,1-.469-.189.7.7,0,0,1-.175-.5.658.658,0,0,1,.175-.476.62.62,0,0,1,.469-.182.626.626,0,0,1,.462.182.644.644,0,0,1,.182.476.686.686,0,0,1-.182.5A.614.614,0,0,1-111.916,8.788Zm5.012,9.394a3.888,3.888,0,0,1-1.526-.3,4.8,4.8,0,0,1-1.218-.721l.448-.588a5.154,5.154,0,0,0,1.022.658,2.946,2.946,0,0,0,1.3.266,1.8,1.8,0,0,0,1.288-.413,1.315,1.315,0,0,0,.434-.987,1.073,1.073,0,0,0-.273-.749,2.165,2.165,0,0,0-.686-.5,8.973,8.973,0,0,0-.847-.35q-.546-.21-1.071-.455a2.5,2.5,0,0,1-.868-.651,1.55,1.55,0,0,1-.343-1.036,1.863,1.863,0,0,1,.287-1.015,2.026,2.026,0,0,1,.833-.728,2.951,2.951,0,0,1,1.33-.273,3.159,3.159,0,0,1,1.19.231,3.678,3.678,0,0,1,.98.567l-.42.56a3.913,3.913,0,0,0-.8-.483,2.332,2.332,0,0,0-.966-.189,1.687,1.687,0,0,0-1.225.392,1.223,1.223,0,0,0-.4.9.97.97,0,0,0,.238.672,1.832,1.832,0,0,0,.63.441q.392.175.812.343.448.168.868.343a3.863,3.863,0,0,1,.763.42,1.918,1.918,0,0,1,.553.609,1.8,1.8,0,0,1,.21.91,2.031,2.031,0,0,1-.294,1.064,2.065,2.065,0,0,1-.854.777A3.052,3.052,0,0,1-106.9,18.182Zm7.28,0a3.308,3.308,0,0,1-1.736-.462,3.231,3.231,0,0,1-1.218-1.337,4.576,4.576,0,0,1-.448-2.107,4.372,4.372,0,0,1,.483-2.128,3.425,3.425,0,0,1,1.267-1.344,3.3,3.3,0,0,1,1.708-.462,2.693,2.693,0,0,1,1.281.28,4.3,4.3,0,0,1,.9.63l-.462.56a3.588,3.588,0,0,0-.763-.539,1.971,1.971,0,0,0-.931-.217,2.341,2.341,0,0,0-1.351.406,2.767,2.767,0,0,0-.938,1.127,3.888,3.888,0,0,0-.343,1.687,3.994,3.994,0,0,0,.329,1.673,2.639,2.639,0,0,0,.917,1.12,2.384,2.384,0,0,0,1.372.4,2.4,2.4,0,0,0,1.064-.238,3.552,3.552,0,0,0,.868-.588l.406.574a4.565,4.565,0,0,1-1.092.693A3.149,3.149,0,0,1-99.624,18.182Zm4.2-.182V6.87h.812v3.178l-.014,1.638a6.469,6.469,0,0,1,1.169-.959,2.526,2.526,0,0,1,1.379-.385,2.024,2.024,0,0,1,1.715.721,3.526,3.526,0,0,1,.553,2.163V18h-.812V13.338a3.037,3.037,0,0,0-.385-1.715,1.434,1.434,0,0,0-1.267-.553,2.089,2.089,0,0,0-1.162.336,7.255,7.255,0,0,0-1.176,1.008V18Zm10.99.182a3.217,3.217,0,0,1-1.673-.462,3.308,3.308,0,0,1-1.239-1.337,4.46,4.46,0,0,1-.462-2.107,4.535,4.535,0,0,1,.462-2.128A3.3,3.3,0,0,1-86.107,10.8a3.217,3.217,0,0,1,1.673-.462,3.216,3.216,0,0,1,1.288.266,3.205,3.205,0,0,1,1.085.77,3.581,3.581,0,0,1,.735,1.239,4.852,4.852,0,0,1,.266,1.659,4.4,4.4,0,0,1-.469,2.107,3.391,3.391,0,0,1-1.232,1.337A3.169,3.169,0,0,1-84.434,18.182Zm0-.714a2.226,2.226,0,0,0,1.3-.4,2.681,2.681,0,0,0,.9-1.12,3.994,3.994,0,0,0,.329-1.673,4.03,4.03,0,0,0-.329-1.687,2.732,2.732,0,0,0-.9-1.127,2.2,2.2,0,0,0-1.3-.406,2.2,2.2,0,0,0-1.3.406,2.682,2.682,0,0,0-.9,1.127,4.106,4.106,0,0,0-.322,1.687,4.069,4.069,0,0,0,.322,1.673,2.632,2.632,0,0,0,.9,1.12A2.226,2.226,0,0,0-84.434,17.468Zm8.316.714a3.217,3.217,0,0,1-1.673-.462,3.308,3.308,0,0,1-1.239-1.337,4.46,4.46,0,0,1-.462-2.107,4.535,4.535,0,0,1,.462-2.128A3.3,3.3,0,0,1-77.791,10.8a3.217,3.217,0,0,1,1.673-.462,3.216,3.216,0,0,1,1.288.266,3.205,3.205,0,0,1,1.085.77,3.581,3.581,0,0,1,.735,1.239,4.852,4.852,0,0,1,.266,1.659,4.4,4.4,0,0,1-.469,2.107,3.391,3.391,0,0,1-1.232,1.337A3.169,3.169,0,0,1-76.118,18.182Zm0-.714a2.226,2.226,0,0,0,1.3-.4,2.681,2.681,0,0,0,.9-1.12,3.994,3.994,0,0,0,.329-1.673,4.03,4.03,0,0,0-.329-1.687,2.732,2.732,0,0,0-.9-1.127,2.2,2.2,0,0,0-1.3-.406,2.2,2.2,0,0,0-1.3.406,2.682,2.682,0,0,0-.9,1.127,4.106,4.106,0,0,0-.322,1.687,4.069,4.069,0,0,0,.322,1.673,2.632,2.632,0,0,0,.9,1.12A2.226,2.226,0,0,0-76.118,17.468Zm6.552.714a1.038,1.038,0,0,1-.56-.14.811.811,0,0,1-.329-.434,2.134,2.134,0,0,1-.1-.714V6.87h.812V16.978a.578.578,0,0,0,.1.371.3.3,0,0,0,.238.119.8.8,0,0,0,.1-.007l.168-.021.126.658-.231.056A1.425,1.425,0,0,1-69.566,18.182Zm7.392,2.114a5.913,5.913,0,0,1-2.079-.357,4.705,4.705,0,0,1-1.673-1.057,4.849,4.849,0,0,1-1.113-1.715,6.255,6.255,0,0,1-.4-2.3,7.277,7.277,0,0,1,.5-2.765,6.528,6.528,0,0,1,1.372-2.128,5.969,5.969,0,0,1,1.995-1.358,6.08,6.08,0,0,1,2.359-.469,5.21,5.21,0,0,1,2.611.623A4.319,4.319,0,0,1-56.9,10.5a5.376,5.376,0,0,1,.6,2.6,5.266,5.266,0,0,1-.266,1.75,3.97,3.97,0,0,1-.7,1.267,3.167,3.167,0,0,1-.945.777,2.159,2.159,0,0,1-1,.266,1.793,1.793,0,0,1-1.036-.287,1.139,1.139,0,0,1-.476-.889h-.028a5.053,5.053,0,0,1-.889.756,1.8,1.8,0,0,1-1.015.322,1.7,1.7,0,0,1-1.26-.546,2.176,2.176,0,0,1-.532-1.582,3.893,3.893,0,0,1,.2-1.2,4.161,4.161,0,0,1,.574-1.141,3.013,3.013,0,0,1,.917-.854,2.342,2.342,0,0,1,1.225-.322,1.449,1.449,0,0,1,.735.189,1.463,1.463,0,0,1,.539.553h.028l.154-.616h.588l-.56,2.954q-.5,2.03.91,2.03a1.623,1.623,0,0,0,1.008-.4,2.979,2.979,0,0,0,.84-1.155,4.463,4.463,0,0,0,.336-1.82,5.33,5.33,0,0,0-.287-1.8,3.815,3.815,0,0,0-.847-1.386,3.791,3.791,0,0,0-1.358-.9,4.969,4.969,0,0,0-1.834-.315,5.081,5.081,0,0,0-2.037.427,5.564,5.564,0,0,0-1.771,1.225,5.833,5.833,0,0,0-1.239,1.918,6.565,6.565,0,0,0-.455,2.492,5.751,5.751,0,0,0,.336,2.03,4.2,4.2,0,0,0,.959,1.519,4.276,4.276,0,0,0,1.477.959,5.121,5.121,0,0,0,1.89.336,4.635,4.635,0,0,0,1.4-.2,5.391,5.391,0,0,0,1.176-.525l.294.546a6.157,6.157,0,0,1-1.4.6A5.479,5.479,0,0,1-62.174,20.3Zm-.336-3.864a1.481,1.481,0,0,0,.756-.245,3.611,3.611,0,0,0,.854-.777l.476-2.618a1.86,1.86,0,0,0-.518-.581,1.094,1.094,0,0,0-.6-.161,1.691,1.691,0,0,0-.917.259,2.288,2.288,0,0,0-.693.679,3.523,3.523,0,0,0-.434.917,3.277,3.277,0,0,0-.154.973,1.65,1.65,0,0,0,.357,1.2A1.2,1.2,0,0,0-62.51,16.432ZM-52,18.182a2,2,0,0,1-1.155-.287,1.553,1.553,0,0,1-.588-.805,3.763,3.763,0,0,1-.175-1.2V11.224h-1.148v-.616l1.176-.084.1-2.142h.686v2.142h2.142v.7H-53.1v4.718a2.214,2.214,0,0,0,.245,1.12,1.063,1.063,0,0,0,1,.42,1.917,1.917,0,0,0,.462-.063,2.187,2.187,0,0,0,.448-.161l.2.644q-.322.112-.651.2A2.428,2.428,0,0,1-52,18.182ZM-49.168,18V10.524h.812V18Zm.42-9.212a.608.608,0,0,1-.469-.189.7.7,0,0,1-.175-.5.658.658,0,0,1,.175-.476.62.62,0,0,1,.469-.182.626.626,0,0,1,.462.182A.644.644,0,0,1-48.1,8.1a.686.686,0,0,1-.182.5A.614.614,0,0,1-48.748,8.788ZM-45.57,18V10.524h.672l.1,1.148h.028a6.786,6.786,0,0,1,1.169-.945,2.526,2.526,0,0,1,1.379-.385,2.024,2.024,0,0,1,1.715.721,3.526,3.526,0,0,1,.553,2.163V18h-.812V13.338a3.037,3.037,0,0,0-.385-1.715,1.434,1.434,0,0,0-1.267-.553,2.089,2.089,0,0,0-1.162.336,7.255,7.255,0,0,0-1.176,1.008V18Zm10.388.182a2,2,0,0,1-1.155-.287,1.553,1.553,0,0,1-.588-.805,3.763,3.763,0,0,1-.175-1.2V11.224h-1.148v-.616l1.176-.084.1-2.142h.686v2.142h2.142v.7h-2.142v4.718a2.214,2.214,0,0,0,.245,1.12,1.063,1.063,0,0,0,1,.42,1.917,1.917,0,0,0,.462-.063,2.187,2.187,0,0,0,.448-.161l.2.644q-.322.112-.651.2A2.428,2.428,0,0,1-35.182,18.182Zm5.5,0a3.38,3.38,0,0,1-1.757-.469,3.384,3.384,0,0,1-1.26-1.337,4.363,4.363,0,0,1-.469-2.1,4.748,4.748,0,0,1,.266-1.638,3.67,3.67,0,0,1,.735-1.239,3.336,3.336,0,0,1,1.057-.784,2.861,2.861,0,0,1,1.218-.273,2.792,2.792,0,0,1,1.54.413,2.674,2.674,0,0,1,.994,1.19,4.529,4.529,0,0,1,.35,1.869q0,.154-.007.3a2.292,2.292,0,0,1-.035.3H-32.34A3.811,3.811,0,0,0-31.969,16a2.734,2.734,0,0,0,.945,1.092,2.5,2.5,0,0,0,1.414.4,3.109,3.109,0,0,0,1.078-.175,3.908,3.908,0,0,0,.9-.469l.322.6a6.345,6.345,0,0,1-1.008.5A3.66,3.66,0,0,1-29.68,18.182Zm-2.66-4.424h4.578a3.1,3.1,0,0,0-.574-2.03,1.92,1.92,0,0,0-1.554-.686,2.154,2.154,0,0,0-1.134.322,2.549,2.549,0,0,0-.882.924A3.584,3.584,0,0,0-32.34,13.758ZM-25.018,18V10.524h.672l.1,1.386h.028a3.756,3.756,0,0,1,.924-1.127,1.854,1.854,0,0,1,1.19-.441,2.158,2.158,0,0,1,.406.035,1.349,1.349,0,0,1,.35.119l-.168.728q-.182-.056-.322-.091A1.546,1.546,0,0,0-22.2,11.1a1.713,1.713,0,0,0-1.036.427,3.489,3.489,0,0,0-.966,1.463V18Zm7.728.182a3.38,3.38,0,0,1-1.757-.469,3.384,3.384,0,0,1-1.26-1.337,4.363,4.363,0,0,1-.469-2.1,4.748,4.748,0,0,1,.266-1.638,3.67,3.67,0,0,1,.735-1.239,3.336,3.336,0,0,1,1.057-.784,2.861,2.861,0,0,1,1.218-.273,2.792,2.792,0,0,1,1.54.413,2.674,2.674,0,0,1,.994,1.19,4.529,4.529,0,0,1,.35,1.869q0,.154-.007.3a2.292,2.292,0,0,1-.035.3H-19.95A3.811,3.811,0,0,0-19.579,16a2.734,2.734,0,0,0,.945,1.092,2.5,2.5,0,0,0,1.414.4,3.109,3.109,0,0,0,1.078-.175,3.908,3.908,0,0,0,.9-.469l.322.6a6.345,6.345,0,0,1-1.008.5A3.66,3.66,0,0,1-17.29,18.182Zm-2.66-4.424h4.578a3.1,3.1,0,0,0-.574-2.03,1.92,1.92,0,0,0-1.554-.686,2.154,2.154,0,0,0-1.134.322,2.549,2.549,0,0,0-.882.924A3.584,3.584,0,0,0-19.95,13.758Zm9.156,4.424a3.888,3.888,0,0,1-1.526-.3,4.8,4.8,0,0,1-1.218-.721l.448-.588a5.154,5.154,0,0,0,1.022.658,2.946,2.946,0,0,0,1.3.266,1.8,1.8,0,0,0,1.288-.413,1.315,1.315,0,0,0,.434-.987,1.073,1.073,0,0,0-.273-.749,2.165,2.165,0,0,0-.686-.5,8.972,8.972,0,0,0-.847-.35q-.546-.21-1.071-.455a2.5,2.5,0,0,1-.868-.651,1.55,1.55,0,0,1-.343-1.036,1.863,1.863,0,0,1,.287-1.015,2.026,2.026,0,0,1,.833-.728,2.951,2.951,0,0,1,1.33-.273,3.159,3.159,0,0,1,1.19.231,3.678,3.678,0,0,1,.98.567l-.42.56a3.913,3.913,0,0,0-.8-.483,2.332,2.332,0,0,0-.966-.189,1.687,1.687,0,0,0-1.225.392,1.223,1.223,0,0,0-.4.9.97.97,0,0,0,.238.672,1.832,1.832,0,0,0,.63.441q.392.175.812.343.448.168.868.343a3.863,3.863,0,0,1,.763.42,1.918,1.918,0,0,1,.553.609,1.8,1.8,0,0,1,.21.91,2.031,2.031,0,0,1-.294,1.064,2.065,2.065,0,0,1-.854.777A3.052,3.052,0,0,1-10.794,18.182Zm6.272,0A2,2,0,0,1-5.677,17.9a1.553,1.553,0,0,1-.588-.805,3.763,3.763,0,0,1-.175-1.2V11.224H-7.588v-.616l1.176-.084.1-2.142h.686v2.142h2.142v.7H-5.628v4.718a2.214,2.214,0,0,0,.245,1.12,1.063,1.063,0,0,0,1,.42,1.917,1.917,0,0,0,.462-.063,2.187,2.187,0,0,0,.448-.161l.2.644q-.322.112-.651.2A2.428,2.428,0,0,1-4.522,18.182Z" transform="translate(1052 1067)"/>
    <path id="패스_2" data-name="패스 2" class="cls-4" d="M1.87,0V-12.342h6.6v.561H2.5V-6.63H7.531v.544H2.5V0Zm8.721,0V-8.959H11.2V0Zm.323-11.22a.57.57,0,0,1-.442-.187.73.73,0,0,1-.17-.51.65.65,0,0,1,.17-.467.583.583,0,0,1,.442-.179.59.59,0,0,1,.434.179.632.632,0,0,1,.179.467.708.708,0,0,1-.179.51A.577.577,0,0,1,10.914-11.22ZM14.756,0V-8.959h.51l.1,1.683H15.4a4.645,4.645,0,0,1,1.088-1.36,2.187,2.187,0,0,1,1.445-.544,2.693,2.693,0,0,1,.442.034,1.381,1.381,0,0,1,.425.153l-.153.561a2.727,2.727,0,0,0-.374-.119,2.062,2.062,0,0,0-.425-.034,2.112,2.112,0,0,0-1.275.535,4.4,4.4,0,0,0-1.207,1.862V0Zm7.871.221a4.52,4.52,0,0,1-1.836-.366A6,6,0,0,1,19.363-1l.391-.493A6.183,6.183,0,0,0,21-.68a3.7,3.7,0,0,0,1.666.34A2.316,2.316,0,0,0,24.353-.9a1.8,1.8,0,0,0,.569-1.326,1.449,1.449,0,0,0-.34-.986,2.7,2.7,0,0,0-.858-.646A9.777,9.777,0,0,0,22.678-4.3q-.68-.255-1.326-.544a3.119,3.119,0,0,1-1.071-.765,1.793,1.793,0,0,1-.425-1.241,2.17,2.17,0,0,1,.323-1.156,2.329,2.329,0,0,1,.952-.85,3.36,3.36,0,0,1,1.547-.323,3.714,3.714,0,0,1,1.343.255,3.862,3.862,0,0,1,1.139.663L24.8-7.8a5.079,5.079,0,0,0-.952-.578,2.831,2.831,0,0,0-1.207-.238,2.2,2.2,0,0,0-1.632.536,1.671,1.671,0,0,0-.527,1.2,1.3,1.3,0,0,0,.3.876,2.308,2.308,0,0,0,.782.578q.484.229,1.012.434.544.2,1.071.417a5.035,5.035,0,0,1,.952.5,2.326,2.326,0,0,1,.688.722,2.081,2.081,0,0,1,.264,1.1,2.362,2.362,0,0,1-.34,1.232,2.437,2.437,0,0,1-.986.91A3.4,3.4,0,0,1,22.627.221Zm7.327,0A2.221,2.221,0,0,1,28.662-.1a1.666,1.666,0,0,1-.638-.91,4.715,4.715,0,0,1-.178-1.369V-8.4H26.418v-.476l1.428-.085.068-2.618h.527v2.618h2.652V-8.4H28.441v6.1A3,3,0,0,0,28.73-.884q.289.544,1.275.544a2.3,2.3,0,0,0,.578-.085,2.919,2.919,0,0,0,.561-.2l.2.51q-.391.136-.774.238A2.53,2.53,0,0,1,29.954.221ZM37.06,0V-8.959h.51l.1,1.683h.034a4.645,4.645,0,0,1,1.088-1.36,2.187,2.187,0,0,1,1.445-.544,2.693,2.693,0,0,1,.442.034,1.381,1.381,0,0,1,.425.153l-.153.561a2.727,2.727,0,0,0-.374-.119,2.062,2.062,0,0,0-.425-.034,2.112,2.112,0,0,0-1.275.535,4.4,4.4,0,0,0-1.207,1.862V0Zm8.891.221A3.923,3.923,0,0,1,43.894-.34a4,4,0,0,1-1.487-1.607,5.3,5.3,0,0,1-.553-2.508,5.76,5.76,0,0,1,.315-1.972,4.533,4.533,0,0,1,.867-1.487,3.845,3.845,0,0,1,1.241-.944,3.344,3.344,0,0,1,1.437-.323,3.3,3.3,0,0,1,1.794.476A3.105,3.105,0,0,1,48.68-7.3,5.476,5.476,0,0,1,49.1-5.049v.28a1.878,1.878,0,0,1-.034.332H42.5a4.9,4.9,0,0,0,.434,2.1A3.553,3.553,0,0,0,44.149-.876a3.17,3.17,0,0,0,1.836.536,3.89,3.89,0,0,0,1.36-.221,4.522,4.522,0,0,0,1.1-.6l.272.527a9.69,9.69,0,0,1-1.139.578A4.153,4.153,0,0,1,45.951.221ZM42.5-5h6a4.121,4.121,0,0,0-.765-2.72,2.523,2.523,0,0,0-2.023-.9,2.783,2.783,0,0,0-1.5.434,3.4,3.4,0,0,0-1.156,1.241A4.759,4.759,0,0,0,42.5-5ZM52.513.221A.912.912,0,0,1,52.02.094a.812.812,0,0,1-.314-.4A1.871,1.871,0,0,1,51.6-1V-13.5h.612V-.9a.718.718,0,0,0,.1.417.317.317,0,0,0,.272.144A.975.975,0,0,0,52.7-.349l.2-.026.119.527A2.19,2.19,0,0,0,52.8.2,1.259,1.259,0,0,1,52.513.221Zm6.715,0A3.923,3.923,0,0,1,57.171-.34a4,4,0,0,1-1.487-1.607,5.3,5.3,0,0,1-.553-2.508,5.76,5.76,0,0,1,.315-1.972,4.533,4.533,0,0,1,.867-1.487,3.845,3.845,0,0,1,1.241-.944A3.344,3.344,0,0,1,58.99-9.18a3.3,3.3,0,0,1,1.794.476,3.105,3.105,0,0,1,1.173,1.4,5.476,5.476,0,0,1,.417,2.253v.28a1.878,1.878,0,0,1-.034.332H55.777a4.9,4.9,0,0,0,.434,2.1A3.553,3.553,0,0,0,57.426-.876a3.17,3.17,0,0,0,1.836.536,3.89,3.89,0,0,0,1.36-.221,4.522,4.522,0,0,0,1.1-.6L62-.629a9.69,9.69,0,0,1-1.139.578A4.153,4.153,0,0,1,59.228.221ZM55.777-5h6a4.121,4.121,0,0,0-.765-2.72,2.523,2.523,0,0,0-2.023-.9,2.783,2.783,0,0,0-1.5.434,3.4,3.4,0,0,0-1.156,1.241A4.759,4.759,0,0,0,55.777-5ZM66.487.221A3.184,3.184,0,0,1,65.2-.034a2.136,2.136,0,0,1-.943-.791A2.453,2.453,0,0,1,63.9-2.21a2.457,2.457,0,0,1,1.411-2.27,12.64,12.64,0,0,1,4.437-1.114,5.14,5.14,0,0,0-.128-1.419,2.277,2.277,0,0,0-.637-1.147,1.958,1.958,0,0,0-1.411-.459,3.858,3.858,0,0,0-1.717.374,7.21,7.21,0,0,0-1.207.714l-.306-.493q.289-.2.773-.476a6.072,6.072,0,0,1,1.122-.476,4.465,4.465,0,0,1,1.368-.2,2.644,2.644,0,0,1,1.658.467,2.479,2.479,0,0,1,.85,1.233A5.464,5.464,0,0,1,70.363-5.8V0h-.51l-.085-1.19h-.051a8.407,8.407,0,0,1-1.5.986A3.718,3.718,0,0,1,66.487.221Zm.051-.561A3.461,3.461,0,0,0,68.1-.723a8.515,8.515,0,0,0,1.649-1.131V-5.066a15.1,15.1,0,0,0-3.086.586,3.777,3.777,0,0,0-1.64.935,1.912,1.912,0,0,0-.493,1.317,1.675,1.675,0,0,0,.6,1.462A2.364,2.364,0,0,0,66.538-.34Zm9.248.561A4.52,4.52,0,0,1,73.95-.145,6,6,0,0,1,72.522-1l.391-.493a6.183,6.183,0,0,0,1.241.816,3.7,3.7,0,0,0,1.666.34A2.316,2.316,0,0,0,77.512-.9a1.8,1.8,0,0,0,.57-1.326,1.449,1.449,0,0,0-.34-.986,2.7,2.7,0,0,0-.858-.646A9.777,9.777,0,0,0,75.837-4.3q-.68-.255-1.326-.544A3.119,3.119,0,0,1,73.44-5.61a1.793,1.793,0,0,1-.425-1.241,2.17,2.17,0,0,1,.323-1.156,2.329,2.329,0,0,1,.952-.85,3.36,3.36,0,0,1,1.547-.323,3.714,3.714,0,0,1,1.343.255,3.862,3.862,0,0,1,1.139.663l-.357.459a5.079,5.079,0,0,0-.952-.578A2.831,2.831,0,0,0,75.8-8.619a2.2,2.2,0,0,0-1.632.536,1.671,1.671,0,0,0-.527,1.2,1.3,1.3,0,0,0,.3.876,2.308,2.308,0,0,0,.782.578q.485.229,1.012.434.544.2,1.071.417a5.035,5.035,0,0,1,.952.5,2.326,2.326,0,0,1,.688.722,2.081,2.081,0,0,1,.264,1.1,2.362,2.362,0,0,1-.34,1.232,2.437,2.437,0,0,1-.986.91A3.4,3.4,0,0,1,75.786.221Zm8.7,0A3.923,3.923,0,0,1,82.433-.34a4,4,0,0,1-1.487-1.607,5.3,5.3,0,0,1-.553-2.508,5.76,5.76,0,0,1,.314-1.972,4.533,4.533,0,0,1,.867-1.487,3.845,3.845,0,0,1,1.241-.944,3.344,3.344,0,0,1,1.437-.323,3.3,3.3,0,0,1,1.794.476,3.105,3.105,0,0,1,1.173,1.4,5.476,5.476,0,0,1,.417,2.253v.28a1.878,1.878,0,0,1-.034.332H81.039a4.9,4.9,0,0,0,.433,2.1A3.553,3.553,0,0,0,82.688-.876a3.17,3.17,0,0,0,1.836.536,3.89,3.89,0,0,0,1.36-.221,4.522,4.522,0,0,0,1.1-.6l.272.527a9.69,9.69,0,0,1-1.139.578A4.152,4.152,0,0,1,84.49.221ZM81.039-5h6a4.121,4.121,0,0,0-.765-2.72,2.523,2.523,0,0,0-2.023-.9,2.783,2.783,0,0,0-1.5.434A3.4,3.4,0,0,0,81.6-6.945,4.759,4.759,0,0,0,81.039-5ZM93.058.221A3.536,3.536,0,0,1,91.1-.315,3.476,3.476,0,0,1,89.811-1.9a6.356,6.356,0,0,1-.459-2.559A5.366,5.366,0,0,1,89.9-6.962,4.17,4.17,0,0,1,91.367-8.6a3.65,3.65,0,0,1,2-.578,3.426,3.426,0,0,1,1.445.289,6.413,6.413,0,0,1,1.309.833l-.051-1.683V-13.5h.612V0h-.51l-.085-1.19H96.05A6.1,6.1,0,0,1,94.741-.2,3.346,3.346,0,0,1,93.058.221Zm.051-.561a3.019,3.019,0,0,0,1.5-.408,6.858,6.858,0,0,0,1.453-1.139V-7.4a5.144,5.144,0,0,0-1.386-.944,3.4,3.4,0,0,0-1.351-.28,2.771,2.771,0,0,0-1.692.561,3.878,3.878,0,0,0-1.2,1.5A4.888,4.888,0,0,0,90-4.454,5.835,5.835,0,0,0,90.364-2.3,3.221,3.221,0,0,0,91.426-.859,2.74,2.74,0,0,0,93.109-.34Zm15.164.561a4.38,4.38,0,0,1-2.592-.8A5.336,5.336,0,0,1,103.9-2.822a8.227,8.227,0,0,1-.646-3.383A8.093,8.093,0,0,1,103.9-9.58a5.239,5.239,0,0,1,1.777-2.2,4.446,4.446,0,0,1,2.592-.782,4.446,4.446,0,0,1,2.592.782,5.239,5.239,0,0,1,1.777,2.2,8.093,8.093,0,0,1,.646,3.375,8.227,8.227,0,0,1-.646,3.383,5.336,5.336,0,0,1-1.777,2.244A4.38,4.38,0,0,1,108.273.221Zm0-.6A3.742,3.742,0,0,0,110.56-1.1a4.691,4.691,0,0,0,1.521-2.032,7.982,7.982,0,0,0,.544-3.077,7.853,7.853,0,0,0-.544-3.06,4.582,4.582,0,0,0-1.521-2,3.8,3.8,0,0,0-2.286-.706,3.814,3.814,0,0,0-2.278.706,4.556,4.556,0,0,0-1.53,2,7.853,7.853,0,0,0-.544,3.06,7.982,7.982,0,0,0,.544,3.077A4.662,4.662,0,0,0,106-1.1,3.752,3.752,0,0,0,108.273-.374Zm11.084.6a3.867,3.867,0,0,1-2.049-.552,3.834,3.834,0,0,1-1.437-1.6,5.557,5.557,0,0,1-.527-2.525,5.4,5.4,0,0,1,.561-2.567,4.03,4.03,0,0,1,1.479-1.607,3.788,3.788,0,0,1,1.989-.552,3.154,3.154,0,0,1,1.547.349,5.1,5.1,0,0,1,1.071.773l-.391.442a4.381,4.381,0,0,0-.986-.714,2.6,2.6,0,0,0-1.241-.289,2.957,2.957,0,0,0-1.717.527,3.655,3.655,0,0,0-1.215,1.462,4.959,4.959,0,0,0-.451,2.176,5.11,5.11,0,0,0,.425,2.151A3.445,3.445,0,0,0,117.6-.859a3.065,3.065,0,0,0,1.776.518,3.036,3.036,0,0,0,1.377-.315,4.7,4.7,0,0,0,1.105-.756l.357.442a5.72,5.72,0,0,1-1.275.842A3.556,3.556,0,0,1,119.357.221Zm7.259,0A2.221,2.221,0,0,1,125.324-.1a1.666,1.666,0,0,1-.637-.91,4.715,4.715,0,0,1-.179-1.369V-8.4H123.08v-.476l1.428-.085.068-2.618h.527v2.618h2.652V-8.4H125.1v6.1a3,3,0,0,0,.289,1.411q.289.544,1.275.544a2.3,2.3,0,0,0,.578-.085,2.919,2.919,0,0,0,.561-.2l.2.51q-.391.136-.774.238A2.53,2.53,0,0,1,126.616.221Zm3.927,0a.676.676,0,0,1-.467-.2.692.692,0,0,1-.213-.535.735.735,0,0,1,.213-.57.676.676,0,0,1,.467-.2.7.7,0,0,1,.484.2.735.735,0,0,1,.212.57.692.692,0,0,1-.212.535A.7.7,0,0,1,130.543.221ZM137.037,0V-.391q2.023-2.074,3.34-3.579a16.06,16.06,0,0,0,1.972-2.686A4.661,4.661,0,0,0,143-8.908a3.326,3.326,0,0,0-.28-1.385,2.2,2.2,0,0,0-.876-.986,2.922,2.922,0,0,0-1.547-.366,2.973,2.973,0,0,0-1.573.451,5,5,0,0,0-1.3,1.148L137-10.438a6.322,6.322,0,0,1,1.453-1.25,3.519,3.519,0,0,1,1.9-.5,3.615,3.615,0,0,1,1.785.408,2.771,2.771,0,0,1,1.122,1.148,3.639,3.639,0,0,1,.391,1.725,4.974,4.974,0,0,1-.7,2.448,16.033,16.033,0,0,1-1.972,2.686q-1.275,1.445-3.026,3.3.493-.034,1.012-.059t1.012-.025h4.284V0Zm12.512.221a2.686,2.686,0,0,1-1.9-.731,4.613,4.613,0,0,1-1.19-2.125,12.172,12.172,0,0,1-.408-3.383,11.988,11.988,0,0,1,.408-3.366,4.486,4.486,0,0,1,1.19-2.091,2.722,2.722,0,0,1,1.9-.714,2.722,2.722,0,0,1,1.9.714,4.43,4.43,0,0,1,1.182,2.091,12.229,12.229,0,0,1,.4,3.366,12.417,12.417,0,0,1-.4,3.383A4.556,4.556,0,0,1,151.453-.51,2.686,2.686,0,0,1,149.549.221Zm0-.561a2.059,2.059,0,0,0,1.513-.655,4.32,4.32,0,0,0,.995-1.921,11.857,11.857,0,0,0,.348-3.1,11.738,11.738,0,0,0-.348-3.1,4.18,4.18,0,0,0-.995-1.887,2.086,2.086,0,0,0-1.513-.638,2.086,2.086,0,0,0-1.513.638,4.241,4.241,0,0,0-1,1.887,11.472,11.472,0,0,0-.357,3.1,11.588,11.588,0,0,0,.357,3.1,4.383,4.383,0,0,0,1,1.921A2.059,2.059,0,0,0,149.549-.34Zm5.2.34V-.391q2.023-2.074,3.34-3.579a16.06,16.06,0,0,0,1.972-2.686,4.661,4.661,0,0,0,.654-2.253,3.326,3.326,0,0,0-.28-1.385,2.2,2.2,0,0,0-.876-.986,2.922,2.922,0,0,0-1.547-.366,2.973,2.973,0,0,0-1.573.451,5,5,0,0,0-1.3,1.148l-.425-.391a6.322,6.322,0,0,1,1.453-1.25,3.519,3.519,0,0,1,1.9-.5,3.615,3.615,0,0,1,1.785.408,2.771,2.771,0,0,1,1.122,1.148,3.639,3.639,0,0,1,.391,1.725,4.974,4.974,0,0,1-.7,2.448A16.033,16.033,0,0,1,158.7-3.774q-1.275,1.445-3.026,3.3.493-.034,1.012-.059t1.012-.025h4.284V0Zm12.376.221a4.8,4.8,0,0,1-1.649-.255,4.522,4.522,0,0,1-1.207-.646,7.725,7.725,0,0,1-.884-.782l.391-.442A6.753,6.753,0,0,0,165.1-.833a3.812,3.812,0,0,0,2.057.493,3.152,3.152,0,0,0,1.5-.348,2.606,2.606,0,0,0,1.029-.969,2.761,2.761,0,0,0,.374-1.454,2.614,2.614,0,0,0-.442-1.513,2.869,2.869,0,0,0-1.385-1.012A6.909,6.909,0,0,0,165.784-6V-6.6a5.736,5.736,0,0,0,2.261-.366,2.49,2.49,0,0,0,1.2-.986,2.647,2.647,0,0,0,.366-1.369,2.209,2.209,0,0,0-.68-1.691,2.576,2.576,0,0,0-1.836-.638,3.267,3.267,0,0,0-1.564.391,4.321,4.321,0,0,0-1.224.952l-.391-.425a6.228,6.228,0,0,1,1.368-1.028,3.643,3.643,0,0,1,1.811-.434,3.807,3.807,0,0,1,1.607.331,2.7,2.7,0,0,1,1.147.969,2.71,2.71,0,0,1,.425,1.538,2.752,2.752,0,0,1-.671,1.938,3.824,3.824,0,0,1-1.658,1.054v.068a3.878,3.878,0,0,1,1.377.569,3.237,3.237,0,0,1,1.011,1.063,2.914,2.914,0,0,1,.383,1.513,3.254,3.254,0,0,1-.476,1.785A3.265,3.265,0,0,1,168.954-.2,3.928,3.928,0,0,1,167.127.221Z" transform="translate(622.5 831.5)"/>
  </g>
</svg>
