<svg xmlns="http://www.w3.org/2000/svg" width="200" height="40" viewBox="0 0 200 40">
  <defs>
    <style>
      .cls-1 {
        fill: none;
      }

      .cls-2 {
        fill: #fff;
        stroke: #a0a0a0;
        stroke-width: 1.5px;
      }

      .cls-3, .cls-4 {
        fill: #ff822d;
      }

      .cls-3 {
        stroke: #fff;
        stroke-width: 2.5px;
      }

      .cls-5 {
        fill: #ffdea7;
      }

      .cls-6 {
        fill: #047400;
      }

      .cls-7 {
        fill: #212121;
      }

      .cls-8, .cls-9 {
        fill: #ff6723;
      }

      .cls-9 {
        stroke: #ff822d;
        stroke-width: 0.5px;
      }

      .cls-10 {
        stroke: none;
      }
    </style>
  </defs>
  <g id="logo" transform="translate(-341 -195)">
    <rect id="사각형_1" data-name="사각형 1" class="cls-1" width="200" height="40" transform="translate(341 195)"/>
    <g id="그룹_5" data-name="그룹 5" transform="translate(3 -0.5)">
      <g id="타원_1" data-name="타원 1" class="cls-2" transform="translate(350 201)">
        <circle class="cls-10" cx="16.5" cy="16.5" r="16.5"/>
        <circle class="cls-1" cx="16.5" cy="16.5" r="15.75"/>
      </g>
      <g id="fox" transform="translate(352.991 203.794)">
        <g id="그룹_3" data-name="그룹 3" transform="translate(-0.005 -2)">
          <path id="합치기_1" data-name="합치기 1" class="cls-3" d="M13.411,27.689h-.069A13.845,13.845,0,0,1,.409,18.781h0Q.187,18.2.018,17.6a.624.624,0,0,1,.594-.791h2.12a.8.8,0,0,0,.8-.8V8.326a10.8,10.8,0,0,1,.974-4.433h0A9.881,9.881,0,0,1,7.3.237a1.129,1.129,0,0,1,1.384,0,10.086,10.086,0,0,1,2.759,3.669h-.012a11.694,11.694,0,0,1,.7,2.027h2.549a11.6,11.6,0,0,1,.69-1.995h0a10.112,10.112,0,0,1,2.771-3.7,1.129,1.129,0,0,1,1.384,0A9.952,9.952,0,0,1,22.36,3.958h-.009a10.776,10.776,0,0,1,.948,4.37v7.683a.8.8,0,0,0,.8.8h2.116a.625.625,0,0,1,.6.791c-.111.406-.247.8-.4,1.194h-.007a13.878,13.878,0,0,1-12.937,8.891Z" transform="translate(0.005 0)"/>
        </g>
        <g id="그룹_4" data-name="그룹 4" transform="translate(0.001 -2)">
          <path id="패스_1" data-name="패스 1" class="cls-4" d="M17.385,5.971a11.63,11.63,0,0,0-.69,1.995H14.145a11.637,11.637,0,0,0-.707-2.034L9.944,5.023l-3.427.9a10.8,10.8,0,0,0-.974,4.433v7.684a.8.8,0,0,1-.8.8H2.623a.624.624,0,0,0-.593.791q.172.61.4,1.2l13.007,4.792,13-4.793q.222-.585.4-1.194a.625.625,0,0,0-.6-.791H26.109a.8.8,0,0,1-.8-.8V10.361a10.781,10.781,0,0,0-.952-4.379l-3.527-.959Z" transform="translate(-2.007 -2.034)"/>
          <path id="패스_4" data-name="패스 4" class="cls-5" d="M28.443,20.99H22.049a8.279,8.279,0,0,0-4.826,1.552l-1.79,1.276-1.79-1.276A8.279,8.279,0,0,0,8.818,20.99H2.42A13.845,13.845,0,0,0,15.355,29.9h.139a13.876,13.876,0,0,0,12.95-8.91Z" transform="translate(-2.013 -2.211)"/>
          <g id="그룹_1" data-name="그룹 1" transform="translate(4.502 0)">
            <path id="패스_5" data-name="패스 5" class="cls-6" d="M13.5,5.906a10.079,10.079,0,0,0-2.759-3.669,1.128,1.128,0,0,0-1.384,0,9.883,9.883,0,0,0-2.8,3.669Z" transform="translate(-6.56 -2)"/>
            <path id="패스_6" data-name="패스 6" class="cls-6" d="M21.713,2.237a1.128,1.128,0,0,0-1.384,0A10.112,10.112,0,0,0,17.55,5.956h6.991a9.943,9.943,0,0,0-2.828-3.718Z" transform="translate(-6.682 -2)"/>
            <path id="패스_7" data-name="패스 7" class="cls-7" d="M11,17.989a.989.989,0,0,1,1.977,0v.989a.989.989,0,1,1-1.977,0Z" transform="translate(-6.609 -2.166)"/>
            <path id="패스_8" data-name="패스 8" class="cls-7" d="M18,17.989a.989.989,0,1,1,1.977,0v.989a.989.989,0,0,1-1.977,0Z" transform="translate(-6.687 -2.166)"/>
            <path id="패스_9" data-name="패스 9" class="cls-7" d="M15.546,25.578a3.014,3.014,0,0,0,2.511,1.354.494.494,0,1,0-.01-.989,2.019,2.019,0,0,1-2.017-2.017.5.5,0,0,0-.052-.222.868.868,0,0,0,.171-.133l1.114-1.118a.856.856,0,0,0-.6-1.464H14.428a.857.857,0,0,0-.613,1.464l1.119,1.117a.862.862,0,0,0,.163.127.5.5,0,0,0-.054.228,2.019,2.019,0,0,1-2.017,2.017.494.494,0,1,0,0,.989,3.045,3.045,0,0,0,2.519-1.354Z" transform="translate(-6.626 -2.211)"/>
            <path id="패스_16" data-name="패스 16" class="cls-8" d="M10.156,3.979a8.544,8.544,0,0,1,2.61,4.35,9.889,9.889,0,0,0-5.7,4.311V10.324A8.54,8.54,0,0,1,9.908,3.979a.194.194,0,0,1,.247,0Z" transform="translate(-6.566 -2.022)"/>
            <path id="패스_17" data-name="패스 17" class="cls-8" d="M24.006,10.348v2.284a9.874,9.874,0,0,0-5.706-4.3,8.5,8.5,0,0,1,2.6-4.341.194.194,0,0,1,.247,0,8.477,8.477,0,0,1,2.857,6.361Z" transform="translate(-6.69 -2.022)"/>
          </g>
        </g>
      </g>
      <path id="패스_10" data-name="패스 10" class="cls-9" d="M8.425-22.925,5.4-5.435H3.944L.923-22.925H2.465L4.628-9.036,4.7-7.9q.011-.39.079-1.137L6.937-22.925ZM11.914-18.7H10.408v-1.873h1.506Zm-.022,13.22H10.431V-16.326h1.461Zm8.361-1.262a1.113,1.113,0,0,1-.314.947,1.113,1.113,0,0,1-.947.314h-3.4a1.113,1.113,0,0,1-.947-.314,1.113,1.113,0,0,1-.314-.947V-9.2h1.462v2.437h3V-8.931L14.91-12.1a1.416,1.416,0,0,1-.561-1.159V-15.06a1.113,1.113,0,0,1,.314-.947,1.113,1.113,0,0,1,.947-.314h3.365a1.113,1.113,0,0,1,.947.314,1.113,1.113,0,0,1,.314.947V-12.9H18.792v-2.142h-3v1.9l3.913,3.177a1.43,1.43,0,0,1,.547,1.182Zm8.562,1.262H27.353v-.307q-.892.122-1.772.234a14.79,14.79,0,0,1-1.772.14,1.064,1.064,0,0,1-.9-.3,1.064,1.064,0,0,1-.3-.9v-9.71h1.459v9.519l3.289-.09v-9.431h1.461Zm8.552,0H35.9v-.307q-.88.122-1.761.234a15.14,15.14,0,0,1-1.75.14,1.07,1.07,0,0,1-.909-.3,1.07,1.07,0,0,1-.307-.906v-3.958a1.109,1.109,0,0,1,.318-.94,1.109,1.109,0,0,1,.943-.309h3.487V-15.09H32.737v1.851H31.3v-1.822a1.109,1.109,0,0,1,.309-.943,1.109,1.109,0,0,1,.94-.318h3.566a1.109,1.109,0,0,1,.94.318,1.109,1.109,0,0,1,.309.943ZM35.928-6.828v-3.834H32.615v3.895Zm5.417,1.349H39.882V-22.925h1.461ZM55.323-22.925,52.3-5.435H50.84l-3.021-17.49h1.542L51.524-9.036,51.591-7.9q.011-.39.079-1.137l2.163-13.889ZM63.471-6.74a1.113,1.113,0,0,1-.314.947,1.113,1.113,0,0,1-.947.314H58.487a1.109,1.109,0,0,1-.94-.318,1.109,1.109,0,0,1-.309-.943v-8.327a1.109,1.109,0,0,1,.309-.943,1.109,1.109,0,0,1,.94-.318h3.724a1.113,1.113,0,0,1,.947.314,1.113,1.113,0,0,1,.314.947Zm-1.483-.045v-8.238H58.721v8.238Zm9.921.045A1.109,1.109,0,0,1,71.6-5.8a1.109,1.109,0,0,1-.94.318H67.137A1.109,1.109,0,0,1,66.2-5.8a1.109,1.109,0,0,1-.309-.943v-8.327a1.109,1.109,0,0,1,.309-.943,1.109,1.109,0,0,1,.94-.318H70.66a1.109,1.109,0,0,1,.94.318,1.109,1.109,0,0,1,.309.943V-12.9H70.448v-2.118H67.371v8.238h3.077V-9.2h1.461Zm8.539,1.262H78.986v-.308q-.88.122-1.761.234a15.14,15.14,0,0,1-1.75.14,1.07,1.07,0,0,1-.909-.3,1.07,1.07,0,0,1-.307-.906v-3.958a1.109,1.109,0,0,1,.318-.94,1.109,1.109,0,0,1,.943-.309h3.489V-15.09H75.821v1.851H74.382v-1.822a1.109,1.109,0,0,1,.309-.943,1.109,1.109,0,0,1,.94-.318H79.2a1.109,1.109,0,0,1,.94.318,1.109,1.109,0,0,1,.309.943ZM79.01-6.827v-3.834H75.7v3.893Z" transform="translate(394.04 231.051)"/>
    </g>
  </g>
</svg>
