<svg xmlns="http://www.w3.org/2000/svg" width="14" height="13" viewBox="0 0 14 13">
  <defs>
    <style>
      .cls-1 {
        fill: #cfcfcf;
      }
    </style>
  </defs>
  <path id="refresh" class="cls-1" d="M7.875,2a6.3,6.3,0,0,0-6.11,6.19H0l2.917,4.1,2.917-4.1H4.1A3.9,3.9,0,0,1,7.875,4.476,3.917,3.917,0,0,1,11.667,8.5a3.917,3.917,0,0,1-3.792,4.024,3.682,3.682,0,0,1-2.758-1.271L3.7,13.244A5.911,5.911,0,0,0,7.875,15,6.328,6.328,0,0,0,14,8.5,6.328,6.328,0,0,0,7.875,2Z" transform="translate(0 -2)"/>
</svg>
