<svg xmlns="http://www.w3.org/2000/svg" width="500" height="500" viewBox="0 0 500 500">
  <g id="UpdateImage" transform="translate(-308 -426)">
    <rect id="사각형_7" data-name="사각형 7" width="500" height="500" transform="translate(308 426)" fill="none"/>
    <g id="fox" transform="translate(541.173 506.294)">
      <g id="그룹_3" data-name="그룹 3" transform="translate(0 0)">
        <path id="합치기_1" data-name="합치기 1" d="M16.811,34.706h-.086A17.353,17.353,0,0,1,.514,23.54v0q-.278-.722-.489-1.475a.782.782,0,0,1,.745-.992H3.426a1,1,0,0,0,1-1V10.435A13.531,13.531,0,0,1,5.652,4.879h0A12.385,12.385,0,0,1,9.154.3a1.416,1.416,0,0,1,1.735,0,12.642,12.642,0,0,1,3.458,4.6h-.015a14.657,14.657,0,0,1,.882,2.541h3.2a14.538,14.538,0,0,1,.865-2.5h0A12.675,12.675,0,0,1,22.747.3a1.416,1.416,0,0,1,1.735,0,12.473,12.473,0,0,1,3.545,4.661h-.011A13.507,13.507,0,0,1,29.2,10.438v9.63a1,1,0,0,0,1,1H32.86a.784.784,0,0,1,.756.992c-.139.508-.31,1.007-.5,1.5h-.008A17.4,17.4,0,0,1,16.9,34.7Z" transform="translate(0.005 0)" stroke="#fff" stroke-width="2.5"/>
      </g>
      <g id="그룹_4" data-name="그룹 4" transform="translate(0.007 0)">
        <path id="패스_1" data-name="패스 1" d="M21.282,6.211a14.577,14.577,0,0,0-.865,2.5h-3.2a14.587,14.587,0,0,0-.886-2.549l-4.38-1.139-4.3,1.131a13.535,13.535,0,0,0-1.221,5.557v9.631a1,1,0,0,1-1,1H2.779a.782.782,0,0,0-.743.992q.215.764.5,1.5l16.3,6.007,16.291-6.008q.278-.733.5-1.5a.783.783,0,0,0-.756-.992H32.217a1,1,0,0,1-1-1v-9.63A13.513,13.513,0,0,0,30.02,6.225l-4.42-1.2Z" transform="translate(-2.007 -1.276)"/>
        <path id="패스_4" data-name="패스 4" d="M35.038,20.99H27.024a10.377,10.377,0,0,0-6.049,1.945l-2.243,1.6-2.244-1.6A10.377,10.377,0,0,0,10.44,20.99H2.42A17.354,17.354,0,0,0,18.633,32.158h.174A17.393,17.393,0,0,0,35.038,20.99Z" transform="translate(-1.909 2.548)"/>
        <g id="그룹_1" data-name="그룹 1" transform="translate(5.642 0)">
          <path id="패스_5" data-name="패스 5" d="M15.262,6.9A12.633,12.633,0,0,0,11.8,2.3a1.414,1.414,0,0,0-1.735,0A12.387,12.387,0,0,0,6.56,6.9Z" transform="translate(-6.56 -2)"/>
          <path id="패스_6" data-name="패스 6" d="M22.768,2.3a1.414,1.414,0,0,0-1.735,0A12.675,12.675,0,0,0,17.55,6.958h8.763A12.462,12.462,0,0,0,22.768,2.3Z" transform="translate(-3.928 -2)"/>
          <path id="패스_7" data-name="패스 7" d="M11,18.239a1.239,1.239,0,0,1,2.478,0v1.239a1.239,1.239,0,1,1-2.478,0Z" transform="translate(-5.496 1.593)"/>
          <path id="패스_8" data-name="패스 8" d="M18,18.239a1.239,1.239,0,1,1,2.478,0v1.239a1.239,1.239,0,1,1-2.478,0Z" transform="translate(-3.821 1.593)"/>
          <path id="패스_9" data-name="패스 9" d="M16.309,26.741a3.777,3.777,0,0,0,3.148,1.7.62.62,0,1,0-.013-1.239,2.531,2.531,0,0,1-2.528-2.528.628.628,0,0,0-.065-.278,1.087,1.087,0,0,0,.214-.167l1.4-1.4a1.072,1.072,0,0,0-.756-1.835h-2.8a1.074,1.074,0,0,0-.768,1.835l1.4,1.4a1.081,1.081,0,0,0,.2.16.626.626,0,0,0-.068.286A2.531,2.531,0,0,1,13.152,27.2a.62.62,0,0,0,0,1.239,3.816,3.816,0,0,0,3.158-1.7Z" transform="translate(-5.129 -0.538)" fill="#fff"/>
          <path id="패스_16" data-name="패스 16" d="M10.937,3.991a10.709,10.709,0,0,1,3.272,5.453,12.4,12.4,0,0,0-7.139,5.4v-2.9a10.7,10.7,0,0,1,3.558-7.953.243.243,0,0,1,.31,0Z" transform="translate(-6.438 -1.537)"/>
          <path id="패스_17" data-name="패스 17" d="M25.452,11.971v2.863A12.376,12.376,0,0,0,18.3,9.44,10.652,10.652,0,0,1,21.56,4a.243.243,0,0,1,.31,0A10.626,10.626,0,0,1,25.452,11.971Z" transform="translate(-3.748 -1.536)"/>
        </g>
      </g>
    </g>
    <path id="패스_5-2" data-name="패스 5" d="M-240.064,0l-9.812-32.78h8.316l3.74,14.96q.748,2.64,1.3,5.192t1.254,5.28h.22q.748-2.728,1.3-5.28t1.254-5.192l3.7-14.96h8.008L-230.6,0Zm22.044,0V-25.036h7.832V0Zm3.916-28.512a4.478,4.478,0,0,1-3.168-1.1,3.824,3.824,0,0,1-1.188-2.948,3.77,3.77,0,0,1,1.188-2.9,4.478,4.478,0,0,1,3.168-1.1,4.5,4.5,0,0,1,3.146,1.1,3.737,3.737,0,0,1,1.21,2.9,3.789,3.789,0,0,1-1.21,2.948A4.5,4.5,0,0,1-214.1-28.512ZM-196.416.616a14.684,14.684,0,0,1-5.06-.968A15.679,15.679,0,0,1-206.052-2.9l3.476-4.884A16.912,16.912,0,0,0-199.3-5.83a7.609,7.609,0,0,0,3.058.682A3.774,3.774,0,0,0-194-5.676a1.715,1.715,0,0,0,.7-1.452A1.556,1.556,0,0,0-194-8.4a8.237,8.237,0,0,0-1.848-.99q-1.144-.462-2.42-.946a19.765,19.765,0,0,1-2.97-1.54,8.129,8.129,0,0,1-2.442-2.354,6.1,6.1,0,0,1-.968-3.5,7.223,7.223,0,0,1,1.21-4.158,7.963,7.963,0,0,1,3.388-2.772,12.178,12.178,0,0,1,5.082-.99,12.447,12.447,0,0,1,5.148.99,18.519,18.519,0,0,1,3.784,2.222l-3.476,4.664a15.28,15.28,0,0,0-2.662-1.54,6.251,6.251,0,0,0-2.53-.572,3.447,3.447,0,0,0-2,.462,1.554,1.554,0,0,0-.638,1.342,1.484,1.484,0,0,0,.638,1.232,6.583,6.583,0,0,0,1.738.88q1.1.4,2.376.88a22.074,22.074,0,0,1,2.354,1.034,9.713,9.713,0,0,1,2.134,1.474,6.613,6.613,0,0,1,1.54,2.09,6.8,6.8,0,0,1,.572,2.926,7.594,7.594,0,0,1-1.188,4.158,8.03,8.03,0,0,1-3.5,2.948A13.555,13.555,0,0,1-196.416.616Zm22.528,0q-4.136,0-5.984-2.75a13.116,13.116,0,0,1-1.848-7.414V-25.036h7.832v14.52a6.2,6.2,0,0,0,.7,3.5,2.562,2.562,0,0,0,2.2.946,4.174,4.174,0,0,0,2.266-.594A7.164,7.164,0,0,0-166.8-8.624V-25.036h7.832V0h-6.38l-.572-3.432h-.176a13.243,13.243,0,0,1-3.388,2.948A8.446,8.446,0,0,1-173.888.616Zm27.544,0A7.377,7.377,0,0,1-150.3-.418a6.988,6.988,0,0,1-2.574-2.772A8.138,8.138,0,0,1-153.78-7a7.05,7.05,0,0,1,3.3-6.182q3.3-2.222,10.6-3.014a4.393,4.393,0,0,0-.484-1.738,2.535,2.535,0,0,0-1.21-1.1,5.029,5.029,0,0,0-2.09-.374,9.042,9.042,0,0,0-3.08.572,23.886,23.886,0,0,0-3.476,1.628l-2.728-5.148a25.753,25.753,0,0,1,3.41-1.738,21.714,21.714,0,0,1,3.586-1.144,17.1,17.1,0,0,1,3.784-.418,11.293,11.293,0,0,1,5.5,1.232,8.037,8.037,0,0,1,3.432,3.762,15.2,15.2,0,0,1,1.188,6.446V0h-6.38l-.528-2.508h-.22a15.043,15.043,0,0,1-3.322,2.244A8.576,8.576,0,0,1-146.344.616Zm2.684-6.072a3.943,3.943,0,0,0,2.068-.528,7.662,7.662,0,0,0,1.716-1.452v-4a16.163,16.163,0,0,0-3.85.88,4.835,4.835,0,0,0-2.024,1.32,2.563,2.563,0,0,0-.594,1.628,1.879,1.879,0,0,0,.726,1.628A3.263,3.263,0,0,0-143.66-5.456ZM-118.888.616a7.255,7.255,0,0,1-4.246-1.1,5.939,5.939,0,0,1-2.222-3.08,14.468,14.468,0,0,1-.66-4.576V-35.156h7.832v27.28a2.389,2.389,0,0,0,.462,1.694,1.315,1.315,0,0,0,.9.462,3.216,3.216,0,0,0,.4-.022q.176-.022.484-.066l.924,5.764A8.349,8.349,0,0,1-116.6.418,11.554,11.554,0,0,1-118.888.616ZM-95.084,0-104.9-32.78h8.316l3.74,14.96q.748,2.64,1.3,5.192t1.254,5.28h.22q.748-2.728,1.3-5.28t1.254-5.192l3.7-14.96h8.008L-85.624,0Zm31.636.616A12.15,12.15,0,0,1-69.432-.946a12,12,0,0,1-4.554-4.51,13.709,13.709,0,0,1-1.738-7.084A13.59,13.59,0,0,1-73.986-19.6a12.041,12.041,0,0,1,4.554-4.488,12.15,12.15,0,0,1,5.984-1.562,12.21,12.21,0,0,1,4.576.88A11.724,11.724,0,0,1-54.956-22.2a12.45,12.45,0,0,1,2.728,4.114,14.266,14.266,0,0,1,1.012,5.544,13.709,13.709,0,0,1-1.738,7.084,12.045,12.045,0,0,1-4.532,4.51A12.028,12.028,0,0,1-63.448.616Zm0-6.336a3.488,3.488,0,0,0,2.4-.836,4.858,4.858,0,0,0,1.386-2.376,13.2,13.2,0,0,0,.44-3.608,12.96,12.96,0,0,0-.44-3.586A4.852,4.852,0,0,0-61.05-18.48a3.488,3.488,0,0,0-2.4-.836,3.488,3.488,0,0,0-2.4.836,4.992,4.992,0,0,0-1.408,2.354,12.379,12.379,0,0,0-.462,3.586,12.608,12.608,0,0,0,.462,3.608,5,5,0,0,0,1.408,2.376A3.488,3.488,0,0,0-63.448-5.72Zm28.2,6.336A12.839,12.839,0,0,1-41.58-.946a11.391,11.391,0,0,1-4.466-4.51A14.292,14.292,0,0,1-47.7-12.54,13.076,13.076,0,0,1-45.87-19.6a12.275,12.275,0,0,1,4.84-4.488,13.9,13.9,0,0,1,6.49-1.562,10.884,10.884,0,0,1,4.092.726,11.166,11.166,0,0,1,3.212,1.958L-30.888-18a6.017,6.017,0,0,0-1.606-1.012,4.174,4.174,0,0,0-1.562-.308,5.335,5.335,0,0,0-2.992.836,5.359,5.359,0,0,0-1.958,2.354,8.691,8.691,0,0,0-.682,3.586,8.606,8.606,0,0,0,.7,3.608A5.666,5.666,0,0,0-37.07-6.556a4.652,4.652,0,0,0,2.706.836,5.415,5.415,0,0,0,2.288-.506A10.655,10.655,0,0,0-30.008-7.48l3.036,5.148a10.738,10.738,0,0,1-4.07,2.288A14.776,14.776,0,0,1-35.244.616Zm18.084,0A7.377,7.377,0,0,1-21.12-.418,6.988,6.988,0,0,1-23.694-3.19,8.138,8.138,0,0,1-24.6-7a7.05,7.05,0,0,1,3.3-6.182q3.3-2.222,10.6-3.014a4.393,4.393,0,0,0-.484-1.738,2.535,2.535,0,0,0-1.21-1.1,5.029,5.029,0,0,0-2.09-.374,9.042,9.042,0,0,0-3.08.572A23.886,23.886,0,0,0-21.032-17.2l-2.728-5.148a25.753,25.753,0,0,1,3.41-1.738,21.714,21.714,0,0,1,3.586-1.144,17.1,17.1,0,0,1,3.784-.418,11.293,11.293,0,0,1,5.5,1.232,8.037,8.037,0,0,1,3.432,3.762A15.2,15.2,0,0,1-2.86-14.212V0H-9.24l-.528-2.508h-.22A15.043,15.043,0,0,1-13.31-.264,8.576,8.576,0,0,1-17.16.616Zm2.684-6.072a3.943,3.943,0,0,0,2.068-.528,7.662,7.662,0,0,0,1.716-1.452v-4a16.163,16.163,0,0,0-3.85.88,4.835,4.835,0,0,0-2.024,1.32,2.563,2.563,0,0,0-.594,1.628,1.879,1.879,0,0,0,.726,1.628A3.263,3.263,0,0,0-14.476-5.456Z" transform="translate(683 649)"/>
    <path id="패스_6-2" data-name="패스 6" d="M-90.72.2a4.412,4.412,0,0,1-1.3-.2,2.894,2.894,0,0,1-1.147-.675,3.369,3.369,0,0,1-.818-1.313A6.1,6.1,0,0,1-94.29-4.08v-6.81h.555V-4.2a5.249,5.249,0,0,0,.427,2.332A2.555,2.555,0,0,0-92.19-.675a3.243,3.243,0,0,0,1.47.345,3.354,3.354,0,0,0,1.507-.345A2.581,2.581,0,0,0-88.08-1.868,5.171,5.171,0,0,0-87.645-4.2v-6.69h.54v6.81a6.1,6.1,0,0,1-.308,2.093,3.279,3.279,0,0,1-.832,1.313A3.011,3.011,0,0,1-89.415,0,4.487,4.487,0,0,1-90.72.2Zm6.795,3.45V-7.905h.45l.09,1.02h.03a8.6,8.6,0,0,1,1.283-.84A2.99,2.99,0,0,1-80.64-8.1a3,3,0,0,1,1.785.5,2.979,2.979,0,0,1,1.05,1.4,5.945,5.945,0,0,1,.345,2.13,5.015,5.015,0,0,1-.488,2.3A3.613,3.613,0,0,1-79.23-.308a3.193,3.193,0,0,1-1.74.5,2.982,2.982,0,0,1-1.17-.263A6.227,6.227,0,0,1-83.385-.8v4.44Zm3-3.945a2.453,2.453,0,0,0,1.493-.48A3.215,3.215,0,0,0-78.4-2.115a4.811,4.811,0,0,0,.375-1.95,5.8,5.8,0,0,0-.263-1.807,2.628,2.628,0,0,0-.84-1.267,2.4,2.4,0,0,0-1.552-.465,2.766,2.766,0,0,0-1.275.352A7.365,7.365,0,0,0-83.385-6.24v4.875a4.765,4.765,0,0,0,1.35.825A3.273,3.273,0,0,0-80.925-.3Zm8.505.5a3.12,3.12,0,0,1-1.725-.473,3.067,3.067,0,0,1-1.14-1.4,5.609,5.609,0,0,1-.4-2.258A4.735,4.735,0,0,1-75.2-6.143a3.68,3.68,0,0,1,1.29-1.448A3.221,3.221,0,0,1-72.15-8.1a3.023,3.023,0,0,1,1.275.255,5.659,5.659,0,0,1,1.155.735L-69.765-8.6V-11.91h.54V0h-.45l-.075-1.05h-.03a5.38,5.38,0,0,1-1.155.87A2.952,2.952,0,0,1-72.42.2Zm.045-.5a2.663,2.663,0,0,0,1.327-.36,6.051,6.051,0,0,0,1.283-1.005v-4.86a4.538,4.538,0,0,0-1.222-.832,3,3,0,0,0-1.193-.247,2.445,2.445,0,0,0-1.493.495A3.421,3.421,0,0,0-74.73-5.783a4.313,4.313,0,0,0-.39,1.852,5.149,5.149,0,0,0,.322,1.9A2.842,2.842,0,0,0-73.86-.758,2.418,2.418,0,0,0-72.375-.3Zm8,.5A2.81,2.81,0,0,1-65.512-.03a1.884,1.884,0,0,1-.832-.7A2.164,2.164,0,0,1-66.66-1.95a2.168,2.168,0,0,1,1.245-2A11.153,11.153,0,0,1-61.5-4.935a4.536,4.536,0,0,0-.113-1.253A2.01,2.01,0,0,0-62.175-7.2a1.728,1.728,0,0,0-1.245-.405,3.4,3.4,0,0,0-1.515.33A6.362,6.362,0,0,0-66-6.645l-.27-.435q.255-.18.683-.42a5.358,5.358,0,0,1,.99-.42A3.94,3.94,0,0,1-63.39-8.1a2.333,2.333,0,0,1,1.462.412,2.188,2.188,0,0,1,.75,1.088,4.821,4.821,0,0,1,.217,1.485V0h-.45l-.075-1.05h-.045a7.418,7.418,0,0,1-1.327.87A3.28,3.28,0,0,1-64.38.2Zm.045-.5a3.054,3.054,0,0,0,1.38-.337,7.513,7.513,0,0,0,1.455-1V-4.47a13.322,13.322,0,0,0-2.723.518,3.333,3.333,0,0,0-1.447.825A1.687,1.687,0,0,0-66.1-1.965a1.478,1.478,0,0,0,.525,1.29A2.086,2.086,0,0,0-64.335-.3Zm8.175.5A1.96,1.96,0,0,1-57.3-.09a1.47,1.47,0,0,1-.562-.8A4.161,4.161,0,0,1-58.02-2.1V-7.41h-1.26v-.42l1.26-.075.06-2.31h.465v2.31h2.34v.495h-2.34v5.385A2.648,2.648,0,0,0-57.24-.78q.255.48,1.125.48a2.028,2.028,0,0,0,.51-.075,2.576,2.576,0,0,0,.495-.18l.18.45q-.345.12-.683.21A2.232,2.232,0,0,1-56.16.2Zm5.73,0a3.462,3.462,0,0,1-1.815-.5,3.533,3.533,0,0,1-1.312-1.418,4.678,4.678,0,0,1-.488-2.213,5.082,5.082,0,0,1,.278-1.74A4,4,0,0,1-53-6.983a3.393,3.393,0,0,1,1.095-.832A2.95,2.95,0,0,1-50.64-8.1a2.91,2.91,0,0,1,1.583.42,2.74,2.74,0,0,1,1.035,1.238,4.832,4.832,0,0,1,.368,1.987v.247a1.657,1.657,0,0,1-.03.293h-5.79a4.321,4.321,0,0,0,.382,1.853A3.135,3.135,0,0,0-52.02-.773,2.8,2.8,0,0,0-50.4-.3,3.432,3.432,0,0,0-49.2-.5a3.99,3.99,0,0,0,.975-.525l.24.465a8.55,8.55,0,0,1-1.005.51A3.664,3.664,0,0,1-50.43.2Zm-3.045-4.6h5.295a3.636,3.636,0,0,0-.675-2.4,2.226,2.226,0,0,0-1.785-.8,2.455,2.455,0,0,0-1.32.383,3,3,0,0,0-1.02,1.1A4.2,4.2,0,0,0-53.475-4.41ZM-38.295.2a4.161,4.161,0,0,1-1.83-.4A4.078,4.078,0,0,1-41.55-1.35a5.381,5.381,0,0,1-.923-1.793,7.876,7.876,0,0,1-.322-2.333,7.636,7.636,0,0,1,.33-2.325,5.321,5.321,0,0,1,.93-1.77A4.014,4.014,0,0,1-40.087-10.7a4.45,4.45,0,0,1,1.882-.39,3.3,3.3,0,0,1,1.65.4A4.086,4.086,0,0,1-35.43-9.8l-.345.375a3.4,3.4,0,0,0-1.05-.825,2.983,2.983,0,0,0-1.38-.315,3.677,3.677,0,0,0-2.145.623,3.933,3.933,0,0,0-1.38,1.762,6.929,6.929,0,0,0-.48,2.7,7.043,7.043,0,0,0,.48,2.715A4.067,4.067,0,0,0-40.365-.968a3.5,3.5,0,0,0,2.1.638,3.314,3.314,0,0,0,1.53-.345,4.487,4.487,0,0,0,1.29-1.035l.345.36A4.867,4.867,0,0,1-36.472-.218,3.76,3.76,0,0,1-38.295.2Zm8.355,0a3.462,3.462,0,0,1-1.815-.5,3.533,3.533,0,0,1-1.312-1.418,4.678,4.678,0,0,1-.488-2.213,5.082,5.082,0,0,1,.278-1.74,4,4,0,0,1,.765-1.313,3.393,3.393,0,0,1,1.095-.832A2.95,2.95,0,0,1-30.15-8.1a2.91,2.91,0,0,1,1.583.42,2.74,2.74,0,0,1,1.035,1.238,4.832,4.832,0,0,1,.367,1.987v.247a1.657,1.657,0,0,1-.03.293h-5.79A4.321,4.321,0,0,0-32.6-2.062,3.135,3.135,0,0,0-31.53-.773,2.8,2.8,0,0,0-29.91-.3,3.432,3.432,0,0,0-28.71-.5a3.99,3.99,0,0,0,.975-.525l.24.465a8.549,8.549,0,0,1-1,.51A3.664,3.664,0,0,1-29.94.2Zm-3.045-4.6h5.295a3.636,3.636,0,0,0-.675-2.4,2.226,2.226,0,0,0-1.785-.8,2.455,2.455,0,0,0-1.32.383,3,3,0,0,0-1.02,1.1A4.2,4.2,0,0,0-32.985-4.41ZM-24.96,0V-7.905h.45l.09,1.26h.03A7.847,7.847,0,0,1-23.13-7.68a2.634,2.634,0,0,1,1.47-.42,2.151,2.151,0,0,1,1.8.742,3.645,3.645,0,0,1,.585,2.273V0h-.54V-5.01a3.472,3.472,0,0,0-.443-1.95,1.645,1.645,0,0,0-1.462-.645,2.434,2.434,0,0,0-1.343.39,7.879,7.879,0,0,0-1.358,1.17V0Zm10.74.2A1.96,1.96,0,0,1-15.36-.09a1.47,1.47,0,0,1-.562-.8A4.16,4.16,0,0,1-16.08-2.1V-7.41h-1.26v-.42l1.26-.075.06-2.31h.465v2.31h2.34v.495h-2.34v5.385A2.648,2.648,0,0,0-15.3-.78q.255.48,1.125.48a2.028,2.028,0,0,0,.51-.075,2.575,2.575,0,0,0,.5-.18l.18.45q-.345.12-.682.21A2.232,2.232,0,0,1-14.22.2Zm5.73,0A3.462,3.462,0,0,1-10.3-.3a3.533,3.533,0,0,1-1.312-1.418A4.678,4.678,0,0,1-12.1-3.93a5.082,5.082,0,0,1,.278-1.74,4,4,0,0,1,.765-1.313,3.393,3.393,0,0,1,1.1-.832A2.95,2.95,0,0,1-8.7-8.1a2.91,2.91,0,0,1,1.583.42A2.74,2.74,0,0,1-6.082-6.443a4.832,4.832,0,0,1,.367,1.987v.247a1.657,1.657,0,0,1-.03.293h-5.79a4.321,4.321,0,0,0,.382,1.853A3.135,3.135,0,0,0-10.08-.773,2.8,2.8,0,0,0-8.46-.3,3.432,3.432,0,0,0-7.26-.5a3.99,3.99,0,0,0,.975-.525l.24.465a8.549,8.549,0,0,1-1.005.51A3.664,3.664,0,0,1-8.49.2Zm-3.045-4.6h5.3a3.636,3.636,0,0,0-.675-2.4,2.226,2.226,0,0,0-1.785-.8,2.455,2.455,0,0,0-1.32.383,3,3,0,0,0-1.02,1.1A4.2,4.2,0,0,0-11.535-4.41ZM-3.51,0V-7.905h.45l.09,1.485h.03a4.1,4.1,0,0,1,.96-1.2A1.93,1.93,0,0,1-.7-8.1a2.376,2.376,0,0,1,.39.03,1.218,1.218,0,0,1,.375.135l-.135.495a2.406,2.406,0,0,0-.33-.1,1.819,1.819,0,0,0-.375-.03A1.863,1.863,0,0,0-1.9-7.1,3.886,3.886,0,0,0-2.97-5.46V0Z" transform="translate(527.414 608.791)"/>
  </g>
</svg>
